<?xml version="1.0" standalone="no"?>
<!DOCTYPE svg PUBLIC "-//W3C//DTD SVG 20010904//EN"
 "http://www.w3.org/TR/2001/REC-SVG-20010904/DTD/svg10.dtd">
<svg version="1.0" xmlns="http://www.w3.org/2000/svg"
 width="1668.000000pt" height="674.000000pt" viewBox="0 0 1668.000000 674.000000"
 preserveAspectRatio="xMidYMid meet">
<metadata>
Created by potrace 1.16, written by Peter Selinger 2001-2019
</metadata>
<g transform="translate(0.000000,674.000000) scale(0.100000,-0.100000)"
fill="#000000" stroke="none">
<path d="M2132 6498 c-5 -7 -12 -22 -14 -33 -2 -14 -14 -21 -38 -25 -20 -4
-41 -9 -47 -13 -6 -4 -14 -3 -18 3 -17 27 -25 2 -25 -80 0 -53 4 -90 10 -90 6
0 10 24 10 54 0 61 18 90 62 100 36 8 48 -15 48 -93 0 -34 4 -61 10 -61 6 0
10 31 10 74 0 65 2 74 20 79 26 7 26 27 -1 27 -27 0 -22 32 9 45 12 5 22 13
22 17 0 13 -47 9 -58 -4z"/>
<path d="M2840 6385 c0 -104 2 -125 15 -125 13 0 15 21 15 125 0 104 -2 125
-15 125 -13 0 -15 -21 -15 -125z"/>
<path d="M3133 6498 c-22 -28 -41 -78 -32 -84 5 -3 9 -39 9 -80 0 -59 3 -74
15 -74 12 0 15 14 15 70 0 60 3 71 21 80 36 20 49 6 49 -55 0 -72 12 -95 50
-95 36 0 39 15 5 24 -23 6 -25 11 -25 65 0 54 2 60 22 63 32 5 35 28 4 28 -16
0 -26 6 -26 14 0 26 -20 28 -29 3 -8 -20 -15 -23 -41 -19 -36 5 -38 31 -2 47
12 5 22 13 22 17 0 13 -47 9 -57 -4z"/>
<path d="M3420 6385 c0 -104 2 -125 15 -125 12 0 15 13 15 56 0 67 13 94 44
94 30 0 36 -16 36 -91 0 -46 3 -59 15 -59 12 0 15 14 15 68 0 55 -4 73 -20 90
-22 23 -54 29 -65 12 -12 -20 -25 1 -25 41 0 28 -4 39 -15 39 -13 0 -15 -21
-15 -125z"/>
<path d="M4090 6496 c0 -9 7 -16 16 -16 17 0 14 22 -4 28 -7 2 -12 -3 -12 -12z"/>
<path d="M4520 6386 c0 -105 2 -126 15 -126 12 0 15 14 15 63 0 65 11 87 42
87 25 0 38 -31 38 -95 0 -76 24 -71 28 6 2 40 -3 62 -18 87 -19 31 -52 43 -65
22 -13 -21 -24 -8 -27 32 -2 23 -9 43 -15 46 -10 3 -13 -26 -13 -122z"/>
<path d="M1621 6471 c-38 -38 -21 -83 36 -102 48 -15 63 -27 63 -50 0 -27 -33
-40 -82 -33 -39 7 -42 6 -29 -9 19 -24 102 -23 124 1 39 43 9 105 -57 117 -76
15 -49 82 28 69 30 -5 37 -3 34 7 -3 9 -23 15 -51 17 -36 2 -51 -2 -66 -17z"/>
<path d="M10352 6468 c-7 -7 -12 -22 -12 -35 0 -19 -5 -23 -31 -23 -17 0 -39
-5 -49 -10 -13 -7 -21 -7 -25 0 -16 25 -25 -8 -25 -86 0 -64 3 -85 13 -82 7 3
13 28 15 63 4 67 11 81 50 88 42 8 52 -8 52 -84 0 -39 4 -69 10 -69 6 0 10 30
10 70 0 65 2 71 25 82 27 12 24 28 -6 28 -27 0 -24 28 6 42 14 6 25 15 25 20
0 12 -44 10 -58 -4z"/>
<path d="M11190 6466 c0 -9 7 -16 16 -16 17 0 14 22 -4 28 -7 2 -12 -3 -12
-12z"/>
<path d="M11460 6356 c0 -104 3 -126 15 -126 11 0 15 16 17 66 2 51 7 70 21
78 34 21 52 -4 55 -78 2 -50 6 -66 17 -66 12 0 15 14 15 58 0 88 -37 141 -80
114 -23 -14 -27 -9 -32 42 -2 16 -9 31 -15 34 -10 3 -13 -26 -13 -122z"/>
<path d="M11860 6355 c0 -104 2 -125 15 -125 12 0 15 14 15 63 0 65 11 87 42
87 25 0 38 -31 38 -94 0 -43 3 -56 15 -56 25 0 21 120 -6 154 -21 26 -53 34
-64 16 -14 -23 -25 -7 -25 35 0 33 -4 45 -15 45 -13 0 -15 -21 -15 -125z"/>
<path d="M12530 6466 c0 -9 7 -16 16 -16 17 0 14 22 -4 28 -7 2 -12 -3 -12
-12z"/>
<path d="M12955 6468 c-3 -8 -4 -63 -3 -124 2 -89 6 -109 18 -109 12 0 16 15
18 67 3 63 5 68 28 74 36 9 43 -2 46 -75 2 -40 8 -66 16 -69 19 -6 16 127 -4
156 -17 24 -58 30 -71 10 -5 -8 -10 4 -13 31 -5 44 -25 66 -35 39z"/>
<path d="M9840 6435 c-34 -36 -20 -74 35 -95 55 -21 65 -28 65 -50 0 -28 -33
-41 -82 -34 -40 7 -42 6 -29 -10 11 -13 27 -16 64 -14 102 6 114 96 17 128
-62 21 -72 36 -44 65 13 12 26 15 57 10 31 -6 38 -4 35 6 -3 8 -23 15 -49 17
-37 2 -49 -1 -69 -23z"/>
<path d="M11647 6421 c-9 -18 -11 -34 -6 -42 5 -8 9 -39 9 -69 0 -63 11 -80
52 -80 33 0 38 17 6 22 -21 3 -23 9 -26 65 -3 57 -1 62 19 65 33 4 36 28 5 28
-16 0 -26 6 -26 14 0 28 -19 26 -33 -3z"/>
<path d="M1800 6363 c0 -86 8 -103 50 -103 14 0 31 5 38 12 9 9 12 9 12 0 0
-7 7 -12 15 -12 13 0 15 14 13 85 -4 101 -22 119 -26 25 -2 -46 -7 -69 -19
-77 -38 -29 -63 1 -63 77 0 32 -4 62 -10 65 -6 4 -10 -23 -10 -72z"/>
<path d="M2230 6425 c-11 -13 -7 -15 28 -15 31 0 44 -5 52 -20 10 -18 8 -20
-22 -20 -46 0 -78 -24 -78 -59 0 -40 18 -51 78 -48 l52 2 0 68 c0 54 -4 71
-20 87 -24 24 -72 26 -90 5z m80 -105 c0 -12 -10 -25 -25 -32 -21 -9 -29 -9
-42 5 -22 22 -2 47 38 47 22 0 29 -5 29 -20z"/>
<path d="M2418 6419 c-24 -17 -28 -28 -28 -68 0 -37 5 -52 23 -69 29 -27 97
-31 97 -6 0 11 -5 14 -16 10 -48 -18 -94 37 -74 89 10 26 49 41 76 31 11 -4
14 -1 12 12 -5 25 -57 26 -90 1z"/>
<path d="M2594 6428 c-48 -23 -58 -100 -19 -142 29 -31 94 -37 116 -9 13 15
10 16 -28 10 -36 -6 -46 -4 -64 14 -27 27 -16 37 46 41 44 3 50 6 53 26 4 29
-33 72 -62 71 -12 0 -31 -5 -42 -11z m66 -33 c18 -22 9 -27 -41 -23 -41 3 -42
4 -25 21 22 21 49 22 66 2z"/>
<path d="M2939 6411 c-41 -41 -37 -102 10 -138 24 -18 86 -16 102 4 13 15 11
16 -19 10 -42 -9 -82 7 -82 32 0 17 8 20 53 23 48 3 52 5 55 30 4 32 -31 68
-66 68 -13 0 -37 -13 -53 -29z m85 -17 c23 -22 21 -24 -29 -24 -32 0 -45 4
-45 14 0 27 50 34 74 10z"/>
<path d="M3639 6427 c-45 -35 -52 -105 -14 -143 20 -20 33 -25 67 -22 24 2 43
9 46 17 4 11 -3 13 -28 7 -37 -7 -80 14 -80 39 0 11 12 15 44 15 24 0 51 3 60
6 24 9 19 41 -9 69 -26 27 -61 32 -86 12z m69 -29 c21 -21 13 -28 -33 -28 -25
0 -45 4 -45 8 0 15 24 32 45 32 12 0 26 -5 33 -12z"/>
<path d="M3793 6424 c-9 -25 2 -158 15 -162 8 -2 12 9 12 36 0 89 20 123 64
106 13 -5 16 -20 16 -75 0 -55 3 -69 15 -69 12 0 15 13 15 56 0 64 13 94 40
94 27 0 40 -30 40 -94 0 -31 5 -56 10 -56 6 0 10 31 10 73 0 59 -4 77 -18 90
-23 21 -41 21 -64 1 -15 -14 -20 -15 -34 -3 -20 17 -115 19 -121 3z"/>
<path d="M4096 6433 c-3 -3 -6 -44 -6 -90 0 -67 3 -83 15 -83 12 0 15 16 15
84 0 78 -7 105 -24 89z"/>
<path d="M4179 6419 c-28 -28 -21 -51 26 -74 22 -11 43 -24 47 -30 13 -18 -24
-36 -60 -29 -27 5 -34 4 -30 -7 6 -18 85 -24 104 -8 9 7 14 25 12 43 -3 27 -9
33 -46 46 -56 19 -53 44 6 48 37 3 42 6 31 18 -17 21 -66 17 -90 -7z"/>
<path d="M4337 6433 c-4 -3 -7 -60 -7 -125 0 -98 3 -118 15 -118 11 0 15 11
15 38 l0 39 43 -1 c39 -1 43 2 60 36 16 32 16 43 6 76 -14 49 -48 70 -83 54
-15 -6 -27 -7 -33 -1 -5 5 -12 6 -16 2z m91 -35 c7 -7 12 -31 12 -55 0 -32 -5
-45 -19 -53 -25 -13 -27 -13 -45 6 -18 18 -21 66 -6 95 12 21 40 25 58 7z"/>
<path d="M4725 6415 c-34 -33 -35 -105 -3 -135 21 -20 70 -26 102 -14 28 11
17 27 -14 20 -38 -7 -80 11 -80 36 0 15 8 18 44 18 64 0 77 7 70 39 -14 60
-77 79 -119 36z m85 -25 c10 -19 8 -20 -35 -20 -32 0 -45 4 -45 14 0 30 65 35
80 6z"/>
<path d="M4894 6431 c-2 -2 -4 -42 -4 -88 0 -67 3 -83 15 -83 12 0 15 13 15
59 0 61 15 91 46 91 8 0 14 6 14 14 0 10 -12 14 -41 13 -22 -1 -42 -4 -45 -6z"/>
<path d="M5026 6415 c-20 -19 -26 -33 -26 -68 0 -60 31 -89 91 -85 60 4 64 27
4 25 -31 -1 -49 3 -55 13 -20 31 -11 39 48 42 57 3 57 3 55 33 -3 34 -35 65
-68 65 -12 0 -34 -11 -49 -25z m84 -25 c10 -19 8 -20 -35 -20 -46 0 -54 7 -33
28 19 19 56 14 68 -8z"/>
<path d="M10020 6338 c1 -45 6 -80 14 -90 15 -20 56 -24 73 -7 8 8 13 8 17 0
4 -6 11 -11 17 -11 12 0 12 167 -1 175 -6 4 -10 -17 -10 -54 0 -48 -4 -65 -20
-81 -11 -11 -24 -20 -29 -20 -22 0 -41 46 -41 97 0 28 -4 55 -10 58 -6 4 -10
-21 -10 -67z"/>
<path d="M10454 6395 c-18 -13 -16 -14 22 -15 36 0 64 -13 64 -31 0 -3 -18 -9
-40 -12 -51 -7 -70 -22 -70 -57 0 -39 19 -50 79 -48 l51 2 0 73 c0 63 -3 74
-22 87 -28 20 -59 20 -84 1z m86 -91 c0 -13 -21 -42 -35 -48 -32 -12 -62 24
-38 47 8 8 73 9 73 1z"/>
<path d="M10636 6384 c-35 -36 -37 -101 -3 -132 28 -27 92 -30 101 -6 5 13 1
15 -20 10 -40 -10 -74 17 -74 59 0 41 24 67 59 65 40 -3 44 -1 31 15 -20 24
-64 18 -94 -11z"/>
<path d="M10807 6390 c-34 -27 -44 -78 -23 -118 8 -16 23 -32 31 -36 31 -12
83 -6 96 11 13 15 11 16 -23 9 -44 -8 -78 6 -78 34 0 16 9 19 53 22 46 3 52 6
55 26 4 30 -33 72 -63 72 -12 0 -34 -9 -48 -20z m77 -26 c23 -22 21 -24 -29
-24 -32 0 -45 4 -45 14 0 27 50 34 74 10z"/>
<path d="M11064 6401 c-2 -2 -4 -42 -4 -88 0 -67 3 -83 15 -83 11 0 15 12 15
48 0 70 8 89 43 101 16 6 27 14 23 19 -8 7 -85 10 -92 3z"/>
<path d="M11190 6320 c0 -69 3 -91 13 -87 8 2 12 29 12 87 0 58 -4 85 -12 88
-10 3 -13 -19 -13 -88z"/>
<path d="M11281 6384 c-29 -36 -28 -102 0 -133 17 -18 29 -22 55 -18 29 5 34
3 34 -13 0 -25 -35 -43 -66 -36 -17 5 -24 2 -24 -9 0 -11 11 -15 44 -15 66 0
76 20 76 145 l0 100 -49 2 c-43 2 -52 -1 -70 -23z m78 -13 c22 -14 19 -90 -4
-107 -10 -8 -22 -14 -26 -14 -18 0 -39 34 -39 61 0 57 31 84 69 60z"/>
<path d="M12066 6385 c-33 -31 -36 -90 -5 -129 18 -23 27 -27 67 -24 28 2 47
8 50 17 4 11 -3 13 -28 7 -37 -7 -80 14 -80 39 0 11 12 15 48 15 61 0 75 10
66 44 -14 56 -74 72 -118 31z m82 -17 c21 -21 13 -28 -33 -28 -25 0 -45 4 -45
8 0 15 24 32 45 32 12 0 26 -5 33 -12z"/>
<path d="M12236 6403 c-3 -3 -6 -44 -6 -90 0 -67 3 -83 15 -83 11 0 15 12 15
48 0 64 9 90 32 97 34 11 48 -12 48 -82 0 -47 3 -64 13 -61 7 3 13 28 15 63 3
64 14 85 43 85 25 0 39 -37 39 -101 0 -27 5 -49 10 -49 6 0 10 31 10 73 0 59
-4 77 -18 90 -23 21 -41 21 -63 1 -16 -15 -20 -14 -49 2 -24 15 -34 16 -48 7
-11 -6 -24 -7 -34 -2 -8 5 -18 6 -22 2z"/>
<path d="M12537 6403 c-4 -3 -7 -44 -7 -90 0 -63 3 -84 13 -81 8 3 13 31 15
83 3 73 -5 105 -21 88z"/>
<path d="M12621 6391 c-36 -36 -19 -73 39 -86 20 -4 30 -13 30 -25 0 -23 -22
-31 -61 -23 -25 5 -31 3 -27 -8 6 -18 71 -24 98 -9 16 8 20 19 18 42 -3 27 -9
34 -46 47 -54 19 -53 45 1 49 46 4 45 26 -1 30 -21 2 -37 -3 -51 -17z"/>
<path d="M12770 6285 c0 -77 4 -125 10 -125 6 0 10 18 10 40 l0 40 38 -6 c53
-8 73 11 79 72 5 43 2 54 -20 80 -23 27 -28 28 -56 17 -18 -6 -33 -7 -37 -2
-17 29 -24 -3 -24 -116z m98 83 c19 -19 15 -82 -7 -102 -22 -20 -45 -13 -60
21 -26 56 28 120 67 81z"/>
<path d="M13167 6390 c-46 -36 -45 -111 2 -147 24 -18 86 -16 102 4 13 15 11
16 -19 10 -42 -9 -82 7 -82 32 0 17 8 20 53 23 48 3 52 5 55 30 4 31 -31 68
-64 68 -12 0 -33 -9 -47 -20z m83 -30 c10 -19 8 -20 -35 -20 -32 0 -45 4 -45
14 0 30 65 35 80 6z"/>
<path d="M13334 6401 c-2 -2 -4 -42 -4 -88 0 -63 3 -84 13 -81 7 3 14 29 17
64 6 68 14 84 41 84 10 0 19 6 19 14 0 10 -12 14 -41 13 -22 -1 -42 -4 -45 -6z"/>
<path d="M13466 6389 c-36 -28 -38 -105 -3 -137 23 -22 68 -29 101 -16 28 11
17 27 -14 20 -41 -8 -80 9 -80 34 0 18 6 20 55 20 54 0 55 0 55 30 0 34 -33
70 -66 70 -12 0 -33 -9 -48 -21z m84 -29 c10 -19 8 -20 -35 -20 -32 0 -45 4
-45 14 0 30 65 35 80 6z"/>
<path d="M4075 4791 c-33 -5 -36 -7 -17 -13 29 -8 28 -24 -6 -58 -21 -20 -43
-30 -78 -35 -98 -13 -105 -27 -30 -58 46 -19 66 -52 43 -74 -7 -6 -34 -23 -61
-37 -35 -19 -52 -23 -62 -15 -19 16 -87 -15 -82 -38 3 -13 12 -17 32 -16 24 2
26 0 15 -15 -7 -9 -18 -21 -24 -27 -16 -15 -45 -63 -45 -75 0 -5 -20 -42 -45
-82 -34 -55 -45 -82 -45 -113 0 -33 -6 -47 -30 -70 -16 -16 -30 -34 -30 -40 0
-20 -35 -45 -63 -45 -15 0 -27 5 -27 10 0 6 -9 10 -20 10 -11 0 -20 -4 -20
-10 0 -5 -16 -27 -35 -49 -19 -21 -35 -45 -35 -53 0 -8 -5 -19 -11 -25 -6 -6
-13 -26 -15 -44 -3 -19 -10 -38 -15 -44 -5 -5 -9 -17 -9 -27 0 -10 -4 -18 -8
-18 -5 0 -22 -19 -39 -42 -23 -33 -29 -51 -26 -74 4 -26 8 -31 26 -26 12 2 35
19 52 36 27 28 30 29 33 11 3 -11 9 -31 15 -45 13 -32 9 -69 -9 -98 -8 -12
-13 -26 -10 -31 3 -5 -8 -34 -24 -66 -20 -40 -27 -62 -20 -70 7 -8 1 -31 -19
-71 -16 -32 -32 -71 -35 -86 -7 -29 -53 -78 -73 -78 -7 0 -13 -6 -13 -14 0 -8
-4 -16 -8 -18 -4 -1 -18 -20 -31 -40 -16 -27 -30 -38 -47 -38 -14 0 -27 -6
-30 -13 -6 -16 23 -87 35 -87 8 0 51 -64 51 -76 0 -10 -49 -3 -59 10 -6 8 -26
20 -44 27 -53 21 -89 50 -82 66 6 16 -11 43 -27 43 -5 0 -18 -16 -29 -35 -14
-23 -29 -35 -42 -35 -30 0 -87 -36 -87 -54 0 -8 -6 -19 -12 -23 -21 -13 -43
-66 -40 -94 3 -22 10 -28 40 -34 20 -4 41 -13 47 -22 6 -8 31 -17 56 -20 36
-4 48 -1 63 16 17 19 17 21 2 27 -26 10 -19 22 26 45 38 19 46 20 97 9 31 -7
76 -18 100 -26 39 -12 47 -12 69 2 19 13 23 22 18 45 -5 26 -3 29 20 29 36 0
64 18 64 40 0 17 -7 20 -46 20 -45 0 -46 1 -39 28 3 15 13 34 21 42 13 13 16
13 25 -2 6 -10 21 -18 35 -18 17 0 28 -7 31 -20 3 -11 8 -20 11 -20 3 0 27 18
53 40 26 22 54 40 62 40 8 0 25 8 38 19 l23 18 -22 12 c-17 9 -20 18 -16 40 3
15 1 44 -4 65 -9 32 -8 40 9 57 10 10 19 23 19 27 0 5 9 19 20 32 11 13 20 29
20 37 0 7 9 22 20 33 11 11 20 31 20 44 0 13 7 26 15 30 8 3 21 18 27 33 20
44 34 55 48 38 8 -10 9 -15 2 -15 -20 0 -72 -125 -72 -173 0 -37 5 -49 26 -66
15 -12 35 -21 44 -21 22 0 30 -18 23 -53 -4 -20 -1 -28 13 -33 11 -3 26 -9 35
-14 14 -7 87 2 92 12 1 1 10 13 20 24 17 20 17 25 2 95 -21 92 -24 128 -13
135 4 3 8 19 8 36 0 17 7 39 16 49 8 9 17 28 19 41 2 12 8 38 14 57 9 29 7 37
-13 65 -25 33 -28 59 -9 91 11 19 13 19 49 -11 21 -17 41 -40 44 -52 l5 -22
45 23 c37 18 47 29 54 60 5 20 13 37 17 37 4 0 21 11 38 25 24 21 31 36 36 80
4 30 12 55 17 55 14 0 68 -62 68 -78 0 -20 42 -52 61 -46 29 8 41 -19 30 -67
-22 -95 -5 -128 43 -84 14 13 41 36 61 51 39 29 43 41 19 51 -23 8 -64 48 -64
61 0 6 9 17 20 25 16 11 19 21 14 41 -9 38 -64 64 -64 31 0 -25 -39 -39 -66
-24 -13 7 -24 16 -24 20 0 11 35 29 57 29 17 0 63 58 63 79 0 12 18 18 71 25
49 7 58 3 78 -36 14 -26 12 -30 -18 -68 -52 -65 -22 -123 40 -77 l31 22 22
-27 c12 -16 27 -28 33 -28 6 0 18 -6 25 -13 38 -37 90 -56 171 -63 l84 -7 8
29 c5 16 7 35 6 42 -1 6 3 12 9 12 5 0 10 -6 10 -14 0 -8 11 -23 25 -34 14
-11 25 -29 25 -40 0 -12 9 -22 23 -26 32 -8 39 -7 32 4 -3 6 1 10 9 10 20 0
26 -12 19 -38 -4 -16 -9 -19 -22 -13 -30 17 -108 23 -130 12 -32 -17 -68 -111
-76 -196 -7 -72 -27 -190 -36 -215 -5 -14 -9 -47 -10 -75 -1 -27 -5 -67 -11
-89 -5 -21 -7 -45 -3 -54 5 -13 10 -11 29 13 20 25 26 27 39 17 11 -9 14 -23
10 -46 -5 -29 -1 -36 25 -51 33 -20 43 -49 31 -84 -7 -17 -15 -21 -41 -18 -18
2 -45 9 -60 17 -24 11 -30 11 -46 -3 -10 -10 -27 -14 -39 -11 -28 8 -44 -22
-37 -68 5 -28 2 -39 -17 -57 -12 -11 -28 -21 -33 -21 -13 0 -56 -61 -56 -78 0
-7 21 -4 63 10 86 28 89 30 114 69 34 52 42 59 58 53 8 -4 15 -2 15 4 0 5 28
10 62 11 47 0 65 5 80 20 10 11 18 24 18 29 0 16 28 34 34 23 11 -16 -68 -169
-105 -204 -36 -34 -53 -70 -54 -116 -1 -39 3 -50 27 -73 16 -15 36 -31 45 -37
12 -6 19 -27 23 -62 3 -29 11 -54 18 -57 6 -2 12 2 12 9 0 7 11 26 24 43 13
17 26 45 30 63 4 17 22 47 39 66 49 52 77 90 77 103 0 6 7 17 15 24 18 15 20
63 3 58 -7 -3 -20 -18 -28 -35 -28 -57 -74 -105 -97 -101 -20 3 -21 5 -7 43
10 27 12 59 8 101 -4 44 -2 71 9 95 8 19 21 50 28 69 7 19 23 45 36 57 16 16
23 33 23 62 0 22 4 42 9 45 14 9 19 76 6 76 -7 0 -22 9 -35 20 -13 12 -30 18
-38 15 -33 -12 -55 74 -33 130 8 19 8 19 15 -2 4 -13 11 -23 15 -23 10 0 35
51 32 67 -1 6 3 14 9 18 5 3 10 17 10 31 0 13 4 24 9 24 16 0 58 -43 64 -65 4
-17 5 -17 6 4 2 48 -22 100 -59 130 -35 28 -38 29 -43 11 -3 -11 -14 -20 -24
-20 -12 0 -23 -11 -30 -27 l-11 -28 -1 37 c-1 20 -5 40 -11 43 -5 3 -10 22
-10 41 0 28 5 36 25 44 24 9 30 25 25 60 -1 8 -6 17 -11 18 -5 2 -6 8 -3 14 6
10 124 -107 124 -123 0 -5 21 -18 48 -30 26 -11 63 -36 82 -55 44 -41 108 -70
124 -54 7 7 7 16 -1 29 -10 16 -1 53 10 41 18 -19 47 -85 47 -107 0 -15 32
-78 78 -152 65 -105 134 -230 138 -251 0 -3 4 -13 8 -22 4 -10 6 -23 3 -30 -4
-8 -8 -5 -12 10 -4 12 -11 22 -15 22 -4 0 -22 27 -39 60 -22 40 -38 60 -51 60
-23 0 -38 -42 -33 -95 1 -22 -2 -50 -8 -61 -11 -21 -11 -21 -49 -3 -46 22 -60
24 -60 6 0 -8 -17 -31 -39 -53 -21 -21 -64 -76 -95 -122 -54 -78 -57 -85 -47
-114 17 -47 13 -75 -11 -92 -15 -11 -26 -12 -39 -6 -25 14 -39 12 -39 -4 0
-14 -97 -116 -111 -116 -5 0 -9 -6 -9 -14 0 -7 -9 -25 -21 -40 l-20 -26 26
-12 c21 -9 31 -9 47 1 19 12 24 10 50 -18 16 -17 33 -31 38 -31 14 0 69 59
111 121 39 58 71 85 88 74 5 -3 12 -22 16 -43 4 -22 16 -44 30 -54 23 -17 25
-17 54 8 43 36 72 14 35 -27 -19 -21 -3 -62 21 -53 19 8 65 -22 65 -40 0 -19
48 -30 66 -15 20 16 19 -20 -1 -49 -14 -18 -14 -31 -5 -84 7 -35 9 -87 5 -120
-10 -81 16 -109 77 -84 11 5 19 25 23 61 7 56 -3 90 -37 113 -26 19 -22 41 8
52 26 10 26 12 20 83 -3 39 -6 162 -5 272 0 134 -5 234 -15 302 -19 122 -19
113 -5 113 6 0 9 -7 5 -15 -3 -8 -1 -15 5 -15 5 0 14 -10 20 -22 7 -18 8 -13
4 22 -3 25 -10 47 -15 48 -12 4 -13 32 -2 32 19 0 37 -56 36 -109 -1 -35 1
-49 6 -36 l8 20 8 -20 c4 -11 16 -29 26 -39 10 -11 18 -25 18 -31 0 -16 29
-73 41 -80 5 -4 9 0 9 7 1 7 9 3 20 -10 11 -13 25 -22 32 -19 12 4 58 -40 58
-55 0 -4 7 -5 16 -1 13 5 15 1 10 -23 -4 -19 1 -53 14 -93 26 -84 27 -100 0
-76 -11 10 -20 24 -20 30 0 7 -16 29 -35 49 l-35 37 0 -30 c0 -36 16 -80 34
-95 8 -6 16 -22 20 -36 3 -14 17 -38 31 -55 20 -24 26 -27 34 -16 7 11 14 3
31 -32 12 -26 26 -50 31 -52 4 -3 13 -33 20 -66 6 -33 15 -57 19 -52 12 12 17
102 6 100 -5 -1 -8 22 -7 51 1 28 -2 52 -7 52 -5 0 -12 23 -15 52 -4 28 -11
56 -17 62 -5 5 -10 20 -10 32 0 13 -4 26 -10 29 -5 3 -10 22 -10 41 0 19 -4
34 -10 34 -5 0 -10 9 -10 20 0 11 -4 20 -9 20 -5 0 -12 22 -16 50 -4 27 -11
52 -16 56 -5 3 -9 16 -9 30 0 13 -4 24 -10 24 -5 0 -10 11 -10 25 0 14 -4 25
-10 25 -5 0 -10 9 -10 20 0 11 -4 20 -10 20 -5 0 -10 5 -10 11 0 10 -28 78
-37 89 -2 2 -8 -2 -14 -10 -6 -10 -7 -5 -3 18 4 21 3 32 -5 32 -6 0 -11 9 -11
20 0 11 -4 20 -10 20 -5 0 -10 5 -10 12 0 15 -52 122 -62 126 -4 2 -8 12 -8
23 0 10 -4 19 -9 19 -5 0 -13 15 -16 33 -4 17 -10 34 -14 37 -13 11 -31 51
-31 70 0 11 -4 20 -10 20 -5 0 -10 8 -10 18 0 22 -22 72 -32 72 -5 0 -8 12 -8
28 0 22 -2 24 -11 12 -8 -11 -9 -5 -4 23 4 23 2 37 -5 37 -5 0 -10 9 -10 20 0
13 -5 18 -16 13 -8 -3 -13 -12 -10 -19 3 -8 1 -14 -5 -14 -5 0 -14 11 -19 25
-5 14 -16 25 -24 25 -21 0 -31 21 -15 31 8 4 19 3 28 -4 12 -10 13 -9 6 8 -5
11 -9 35 -9 53 0 22 -2 28 -9 20 -6 -9 -7 -4 -4 15 2 15 0 27 -4 27 -5 0 -9 9
-9 20 0 11 -4 20 -8 20 -5 0 -17 16 -28 35 -10 19 -22 35 -26 35 -5 0 -8 6 -8
13 0 7 -13 26 -29 41 -16 16 -32 39 -35 52 -4 13 -11 24 -16 24 -6 0 -10 6
-10 13 0 8 -9 22 -20 32 -11 10 -20 24 -20 32 0 7 -4 13 -10 13 -5 0 -10 7
-10 15 0 8 -11 25 -25 39 -14 14 -25 31 -25 39 0 20 -41 36 -68 26 -25 -9 -67
-91 -58 -114 2 -7 -2 -19 -11 -26 -13 -11 -18 -10 -30 6 -7 11 -17 31 -20 45
-13 53 -44 90 -73 90 -16 0 -32 -4 -35 -10 -9 -15 -55 -12 -55 3 0 18 21 37
40 37 9 0 29 11 45 24 21 18 27 30 23 50 -7 33 6 33 49 0 30 -23 103 -41 103
-25 -1 12 -79 91 -90 91 -7 0 -21 11 -32 25 -11 14 -26 25 -34 25 -8 0 -26 11
-40 25 -14 14 -30 25 -35 25 -6 0 -28 18 -49 40 -21 22 -43 40 -47 40 -5 0
-20 11 -33 25 -13 14 -28 25 -33 25 -5 0 -17 8 -26 18 -9 10 -35 27 -58 37
-24 10 -43 23 -43 28 0 5 -11 7 -25 5 -14 -3 -29 0 -33 6 -7 12 -51 35 -107
56 -58 21 -85 35 -85 42 0 5 -9 8 -20 8 -11 0 -20 3 -20 8 0 11 -49 30 -98 38
-23 4 -45 11 -48 15 -3 5 -16 9 -30 9 -13 0 -24 5 -24 10 0 6 -11 10 -25 10
-14 0 -25 5 -25 10 0 6 -20 10 -44 10 -25 0 -48 5 -51 10 -7 11 -26 11 -90 1z
m258 -67 c5 -6 -48 -64 -59 -64 -7 0 -4 18 6 44 9 24 38 35 53 20z m147 -208
c5 -13 14 -27 19 -31 6 -3 11 -17 11 -31 l0 -25 -27 29 c-16 16 -36 32 -45 35
-21 7 -24 33 -5 40 25 11 38 6 47 -17z m296 -41 c8 -32 -2 -58 -11 -27 -4 12
-11 23 -16 23 -5 1 -13 3 -19 4 -5 1 -16 4 -22 5 -11 2 24 14 54 19 4 0 10
-10 14 -24z m-142 -93 c7 -26 0 -67 -10 -63 -13 5 -25 8 -56 15 -27 6 -29 22
-6 52 13 18 66 15 72 -4z m232 4 c17 -18 18 -45 0 -68 -19 -25 -35 -22 -42 9
-5 18 -2 30 9 38 12 9 14 14 5 23 -9 9 -9 12 1 12 7 0 19 -6 27 -14z m-686
-41 c0 -14 -24 -27 -33 -18 -8 8 16 43 25 37 4 -3 8 -11 8 -19z m616 11 c7
-19 -13 -56 -30 -56 -11 0 -12 7 -3 35 11 37 24 45 33 21z m204 -26 c13 -11
31 -20 40 -20 20 0 70 -37 70 -51 0 -14 -40 -1 -65 21 -11 10 -31 21 -45 25
-29 9 -50 24 -50 36 0 16 26 10 50 -11z m-655 -109 c-7 -32 -25 -43 -25 -16 0
8 -4 15 -10 15 -18 0 -10 17 13 27 28 13 30 11 22 -26z m-87 23 c30 -9 28 -22
-8 -42 -16 -9 -30 -23 -30 -29 0 -7 -6 -13 -12 -13 -18 -1 -72 -90 -74 -120
-1 -14 5 -34 13 -46 19 -30 -4 -49 -50 -40 -45 8 -97 -3 -105 -23 -8 -23 -64
-93 -69 -87 -9 8 8 46 21 46 8 0 12 17 13 51 1 41 6 56 27 77 21 22 26 23 26
9 0 -12 8 -17 28 -17 30 0 67 40 93 98 7 17 17 32 21 32 5 0 8 7 8 15 0 9 9
34 20 55 20 40 33 46 78 34z m415 -64 c-6 -22 -21 -35 -30 -27 -2 3 -2 15 2
26 8 28 35 28 28 1z m-82 -18 l35 -18 -16 -37 c-20 -45 -48 -77 -68 -77 -7 0
-29 7 -47 16 -25 11 -34 23 -38 47 -5 37 6 55 48 73 40 17 45 17 86 -4z m129
-28 c0 -17 -5 -24 -20 -24 -28 0 -37 28 -14 45 24 17 34 11 34 -21z m710 -165
c0 -14 -7 -11 -30 13 -11 12 -20 29 -20 37 1 11 8 8 25 -12 14 -15 25 -32 25
-38z m-410 -44 c14 4 28 1 41 -11 24 -21 24 -30 0 -56 -23 -24 -57 -19 -102
13 -15 10 -31 19 -36 19 -4 0 -14 9 -20 19 -12 18 -9 20 30 23 23 2 47 -1 54
-5 7 -5 22 -6 33 -2z m-290 -34 c0 -11 -59 -26 -67 -18 -3 3 -2 10 2 16 8 13
65 15 65 2z m310 -126 c0 -8 -7 -15 -15 -15 -16 0 -20 12 -8 23 11 12 23 8 23
-8z m594 -93 c65 -73 57 -86 -10 -17 -24 25 -44 50 -44 56 0 15 19 1 54 -39z
m-289 -16 c41 -39 57 -66 37 -66 -4 0 -24 15 -44 33 -20 17 -46 40 -57 49 -12
10 -21 22 -21 27 0 18 41 -2 85 -43z m-1808 -18 c-3 -8 -6 -5 -6 6 -1 11 2 17
5 13 3 -3 4 -12 1 -19z m1983 -28 c0 -5 -2 -10 -4 -10 -3 0 -8 5 -11 10 -3 6
-1 10 4 10 6 0 11 -4 11 -10z m-115 -81 c11 -17 -1 -21 -15 -4 -8 9 -8 15 -2
15 6 0 14 -5 17 -11z m135 -120 c0 -11 -4 -17 -10 -14 -5 3 -10 13 -10 21 0 8
5 14 10 14 6 0 10 -9 10 -21z m195 -170 c4 -11 22 -27 40 -35 27 -11 35 -21
40 -48 4 -19 4 -43 1 -54 -4 -11 1 -44 10 -72 13 -39 14 -54 5 -63 -8 -8 -16
-6 -32 9 -23 24 -46 102 -24 84 10 -8 14 -4 20 17 3 15 2 29 -3 31 -6 2 -8 12
-5 22 3 11 0 20 -6 20 -6 0 -11 10 -12 23 -1 21 -1 21 -8 -3 l-7 -25 -14 25
c-17 29 -50 100 -50 106 0 13 40 -19 45 -37z m-555 -375 c0 -10 -48 -53 -53
-48 -2 3 -2 16 1 29 3 18 11 25 28 25 13 0 24 -3 24 -6z m394 -150 c3 -9 6
-26 6 -38 0 -23 77 -116 96 -116 15 0 48 -76 41 -94 -7 -18 -27 -22 -27 -6 0
26 -30 6 -44 -30 -17 -42 -35 -50 -57 -24 -10 12 -10 22 -2 45 15 39 6 72 -18
66 -26 -7 -51 25 -44 56 4 14 2 28 -4 31 -14 9 -14 63 0 71 5 4 14 18 19 31
11 28 25 31 34 8z m166 -120 c0 -8 -4 -12 -10 -9 -5 3 -10 10 -10 16 0 5 5 9
10 9 6 0 10 -7 10 -16z m78 -73 c25 -45 28 -61 8 -61 -19 0 -46 44 -46 75 0
36 13 31 38 -14z"/>
<path d="M3730 4781 c-30 -3 -54 -10 -52 -15 4 -11 -48 -38 -62 -32 -6 2 -3 5
7 5 23 1 22 21 -2 21 -10 0 -36 -7 -57 -16 -25 -11 -78 -18 -144 -21 -58 -2
-115 -9 -127 -15 -39 -19 -28 -43 28 -61 65 -22 124 -14 146 19 20 32 64 31
125 -1 69 -36 100 -33 153 16 31 29 44 47 40 59 -6 19 9 35 40 43 27 6 -25 5
-95 -2z"/>
<path d="M10960 4700 c0 -5 -26 -10 -57 -10 -32 0 -76 -5 -98 -11 -22 -6 -52
-13 -67 -16 -16 -3 -28 -9 -28 -14 0 -5 -9 -9 -20 -9 -11 0 -20 -4 -20 -10 0
-5 -7 -10 -15 -10 -8 0 -15 -4 -15 -10 0 -5 -8 -10 -18 -10 -10 0 -27 -7 -38
-15 -12 -8 -24 -11 -28 -8 -3 3 -6 1 -6 -6 0 -8 -8 -11 -19 -8 -11 2 -24 -3
-32 -14 -7 -11 -20 -19 -29 -19 -8 0 -21 -9 -28 -20 -7 -11 -18 -20 -25 -20
-16 0 -67 -51 -67 -67 0 -16 39 -4 75 22 17 13 40 28 53 35 21 10 23 9 21 -7
-2 -10 -1 -22 2 -28 4 -5 9 -27 13 -47 6 -30 3 -39 -13 -47 -10 -6 -29 -27
-41 -47 -13 -19 -26 -32 -31 -27 -9 9 -31 90 -30 116 0 23 -12 22 -59 -8 -23
-14 -47 -22 -57 -19 -15 5 -15 4 -3 -5 12 -8 11 -13 -7 -33 -12 -13 -26 -42
-32 -65 -11 -39 -26 -61 -36 -51 -9 8 19 84 38 105 11 13 17 26 13 30 -3 4
-81 -68 -171 -159 -143 -144 -165 -170 -165 -198 0 -26 5 -33 30 -42 35 -12
50 -35 50 -77 0 -16 5 -33 10 -36 12 -7 13 -48 3 -59 -5 -4 -8 -30 -8 -58 0
-42 -5 -54 -28 -73 -30 -27 -35 -53 -11 -62 8 -3 13 -12 10 -19 -3 -7 6 -22
20 -33 20 -16 31 -18 57 -10 24 7 35 5 46 -6 14 -14 14 -18 0 -42 -14 -22 -15
-30 -3 -52 7 -14 16 -38 19 -53 3 -14 16 -39 29 -55 14 -16 28 -41 31 -56 4
-14 22 -43 41 -62 40 -43 70 -40 86 6 7 19 20 31 41 38 70 20 149 65 197 111
46 44 50 51 39 71 -10 19 -9 25 7 36 10 7 21 13 25 13 12 0 18 54 7 67 -7 9
-15 10 -30 2 -15 -8 -28 -7 -53 5 -19 9 -37 21 -40 26 -9 15 -74 12 -165 -6
-45 -9 -84 -13 -88 -9 -10 10 36 45 59 45 22 0 24 11 7 28 -20 20 -65 14 -116
-15 -57 -32 -102 -27 -102 10 0 13 5 28 12 35 9 9 9 12 0 12 -7 0 -12 5 -12
10 0 6 11 10 24 10 14 0 27 4 31 9 3 5 19 12 35 16 16 4 45 17 65 31 34 22 38
23 65 9 28 -14 29 -14 61 26 20 26 32 53 34 77 4 50 15 92 26 92 5 0 9 -8 9
-18 0 -10 11 -22 24 -28 l25 -9 -18 -37 c-10 -20 -15 -40 -11 -45 5 -4 19 -28
33 -53 23 -40 29 -45 57 -42 19 1 43 14 61 32 16 16 35 27 43 24 7 -3 25 0 39
5 24 9 27 8 33 -14 3 -14 9 -25 13 -25 4 0 7 -16 8 -36 1 -41 6 -49 28 -41 21
9 19 46 -5 85 -11 18 -18 37 -15 43 11 17 55 9 73 -13 42 -53 62 -68 91 -68
16 0 33 5 36 10 10 17 44 11 54 -9 8 -14 6 -23 -11 -37 -49 -44 -78 -96 -78
-141 0 -24 -7 -60 -15 -80 -17 -40 -12 -48 35 -59 14 -3 36 -9 49 -13 14 -4
41 -3 62 3 29 8 42 6 62 -7 26 -17 68 -13 62 6 -2 7 -6 45 -10 85 -6 67 -5 72
14 72 13 0 21 -8 23 -22 2 -18 9 -22 29 -20 19 2 29 -5 39 -23 7 -14 17 -25
22 -25 4 0 8 -18 8 -39 0 -50 44 -101 87 -101 51 -1 90 -54 58 -80 -8 -7 -14
-24 -14 -39 1 -14 -1 -47 -6 -73 -6 -42 -5 -49 18 -72 15 -14 34 -26 45 -26
20 0 158 -65 182 -86 13 -11 20 -7 47 25 22 27 30 45 26 60 -3 11 -9 21 -13
21 -18 0 -34 77 -20 95 4 5 7 26 6 45 -1 19 2 45 7 57 8 18 12 20 23 8 8 -7
14 -25 14 -39 0 -14 4 -26 9 -26 5 0 12 -8 16 -17 5 -15 4 -16 -6 -5 -37 36
-40 -21 -3 -59 22 -23 27 -37 26 -83 0 -54 0 -55 66 -123 114 -118 159 -142
149 -79 -7 42 14 66 38 46 20 -16 30 -79 17 -100 -8 -13 -7 -23 3 -37 8 -11
12 -23 9 -26 -12 -11 7 -43 34 -59 36 -21 177 -15 204 9 18 16 38 10 38 -11 0
-22 41 -43 96 -51 28 -3 64 -13 79 -21 45 -23 63 -5 57 58 -3 29 -9 55 -13 56
-5 2 -9 14 -9 27 0 13 -4 26 -9 30 -6 3 -10 27 -9 53 1 61 -16 100 -47 112
-14 5 -25 14 -25 20 0 12 -101 5 -129 -9 -11 -6 -24 -11 -28 -10 -4 1 -18 -2
-30 -6 -19 -6 -23 -15 -23 -51 0 -48 -16 -66 -36 -40 -7 10 -17 15 -22 12 -5
-3 -11 24 -14 62 -4 55 -11 77 -41 124 -21 31 -43 61 -49 65 -32 20 -51 58
-69 139 -11 49 -26 103 -34 119 -7 17 -18 48 -25 70 -24 74 -52 128 -75 147
-13 10 -27 28 -30 39 -8 26 -38 70 -88 131 -43 53 -46 68 -13 68 13 0 26 6 29
13 3 9 9 8 21 -4 15 -14 21 -14 69 2 52 17 52 18 58 66 7 57 2 80 -18 87 -9 4
-17 -1 -20 -14 -4 -16 -11 -19 -32 -14 -14 4 -35 14 -46 24 -11 9 -30 20 -43
23 -17 4 -23 0 -28 -19 -8 -33 -30 -30 -76 11 -21 20 -43 33 -48 30 -6 -4 -10
0 -10 8 0 10 7 13 19 10 22 -6 49 31 31 42 -5 3 -10 15 -10 25 0 12 -15 29
-35 42 -25 17 -37 33 -41 58 -4 19 -19 58 -35 86 -16 28 -29 60 -29 70 0 28
-28 64 -50 64 -11 0 -26 12 -35 30 -25 47 -21 53 33 45 67 -10 132 -64 132
-109 0 -50 37 -97 103 -130 32 -16 61 -26 64 -22 13 13 -13 40 -46 48 -17 5
-35 17 -38 26 -3 9 -12 24 -20 33 -8 9 -13 20 -12 25 3 14 -13 47 -33 68 -10
11 -18 30 -18 42 0 29 -37 74 -61 74 -29 0 -59 18 -59 35 0 8 7 15 15 15 38 0
-2 40 -55 55 -14 3 -44 16 -66 28 -39 19 -43 20 -59 4 -20 -21 -45 -22 -45 -2
0 8 5 15 11 15 5 0 7 5 4 10 -3 6 -50 10 -105 10 -55 0 -102 4 -105 10 -3 6
-33 10 -66 10 -33 0 -59 -4 -59 -10z m55 -30 c3 -5 1 -10 -4 -10 -6 0 -11 5
-11 10 0 6 2 10 4 10 3 0 8 -4 11 -10z m-260 -150 c8 -13 -13 -40 -31 -40 -14
0 -19 31 -7 43 10 10 31 8 38 -3z m113 -19 c10 -6 7 -12 -13 -25 -31 -21 -49
-13 -32 14 13 22 25 24 45 11z m-148 -116 c0 -9 -13 -23 -29 -33 -23 -13 -31
-26 -36 -62 -4 -25 -11 -53 -16 -62 -9 -16 -11 -16 -35 5 -30 26 -49 59 -59
105 -6 29 -4 32 17 32 13 0 32 7 42 15 28 21 116 20 116 0z m103 -180 c10 -30
15 -60 12 -65 -8 -13 29 -60 58 -75 28 -14 50 -60 43 -90 -4 -14 -18 -27 -36
-34 -28 -9 -33 -7 -69 29 -44 44 -53 75 -36 117 12 29 9 53 -8 65 -12 7 -21
74 -13 95 11 28 32 11 49 -42z m355 -72 l23 -41 -35 -12 c-28 -9 -45 -8 -89 5
-68 20 -90 41 -63 61 14 9 24 10 38 3 14 -8 25 -5 45 11 36 28 54 22 81 -27z
m-533 -94 c5 -31 3 -45 -9 -57 -21 -22 -32 -8 -40 51 -5 45 -4 47 18 47 21 0
25 -6 31 -41z m715 -109 c11 -11 20 -26 20 -33 0 -7 4 -17 9 -22 6 -6 12 -26
14 -46 2 -20 7 -41 11 -47 5 -8 0 -12 -13 -12 -14 0 -21 -8 -23 -26 -3 -28 -7
-31 -74 -62 -40 -18 -41 -18 -53 0 -7 11 -9 33 -5 53 5 26 2 36 -9 41 -17 6
-20 71 -4 92 5 7 7 15 4 19 -9 8 64 61 86 62 9 1 26 -8 37 -19z m-1190 -2 c0
-7 -5 -20 -10 -28 -8 -12 -10 -9 -10 13 0 15 5 27 10 27 6 0 10 -6 10 -12z
m442 -15 c-5 -25 -6 -25 -13 -8 -11 29 -10 35 5 35 9 0 12 -8 8 -27z m1113
-33 c0 -22 -29 -18 -33 3 -3 14 1 18 15 15 10 -2 18 -10 18 -18z m-185 -45
c12 7 60 -20 60 -35 0 -5 -12 -5 -30 0 -25 7 -32 5 -45 -13 -17 -24 -20 -63
-5 -72 6 -3 10 -15 10 -25 0 -10 7 -23 17 -28 10 -6 14 -16 10 -26 -5 -13 -11
-15 -27 -6 -28 15 -46 50 -30 60 9 6 8 15 -4 38 -9 17 -16 37 -16 44 0 7 -14
28 -30 47 -29 33 -36 51 -24 64 3 3 28 -8 55 -24 27 -17 53 -27 59 -24z m-735
35 c3 -5 1 -10 -4 -10 -6 0 -11 5 -11 10 0 6 2 10 4 10 3 0 8 -4 11 -10z m453
-274 c5 -25 -17 -49 -34 -35 -10 8 -10 16 -2 35 13 27 31 27 36 0z m-848 -166
c0 -5 -4 -10 -10 -10 -5 0 -10 5 -10 10 0 6 5 10 10 10 6 0 10 -4 10 -10z
m109 -32 c12 -30 -14 -54 -35 -33 -8 7 -14 20 -14 28 0 33 37 37 49 5z m1104
-243 c25 -18 27 -80 3 -103 -16 -16 -18 -16 -42 11 -26 30 -32 75 -12 95 15
15 29 15 51 -3z m295 -221 c13 -20 21 -38 18 -41 -9 -10 -38 7 -34 19 3 7 -1
19 -9 26 -7 7 -13 18 -13 23 0 19 16 8 38 -27z m625 -224 c9 -11 17 -29 17
-40 0 -21 -15 -27 -25 -10 -3 6 -19 10 -36 10 -24 0 -29 4 -29 23 0 13 3 27 7
30 13 14 49 6 66 -13z"/>
<path d="M3085 4661 c-3 -6 -22 -11 -40 -11 -26 0 -33 -3 -29 -15 5 -12 -3
-15 -37 -15 -24 0 -83 -2 -132 -4 -48 -2 -90 0 -93 5 -3 5 -12 2 -20 -6 -9 -8
-31 -15 -50 -15 -19 0 -42 -4 -52 -9 -9 -5 -31 -15 -48 -22 -18 -7 -35 -24
-41 -40 -13 -34 -51 -46 -99 -31 -30 9 -39 6 -91 -25 -72 -43 -69 -38 -49 -67
21 -32 20 -36 -5 -36 -11 0 -41 -9 -67 -19 -26 -11 -60 -22 -76 -26 -37 -8
-76 -34 -76 -51 0 -15 2 -16 40 -20 14 -1 50 -5 81 -9 50 -7 62 -4 134 29 72
33 83 36 139 30 75 -8 170 10 197 37 10 10 23 19 28 19 11 0 21 25 21 56 0 28
-32 39 -89 30 -43 -7 -51 -3 -44 24 8 30 61 44 168 46 55 1 116 7 135 13 19 7
58 14 85 17 71 5 163 54 148 78 -4 6 -8 17 -8 25 0 18 -21 26 -30 12z"/>
<path d="M11505 4662 c6 -5 33 -17 60 -27 152 -50 161 -54 163 -86 2 -23 -2
-29 -17 -29 -10 0 -26 -11 -35 -25 -15 -23 -15 -27 4 -65 11 -23 18 -46 14
-51 -7 -12 62 -79 81 -79 6 0 26 -16 45 -35 19 -20 44 -35 57 -35 14 0 23 -6
23 -16 0 -9 9 -27 20 -41 15 -19 18 -34 14 -67 -6 -44 7 -86 28 -86 6 0 24
-15 39 -32 25 -31 32 -33 104 -38 69 -5 83 -2 126 20 67 34 89 55 89 84 0 23
23 56 39 56 14 0 4 68 -15 92 -10 14 -35 33 -54 41 -51 24 -71 42 -64 60 7 18
-23 37 -59 37 -14 0 -30 6 -37 14 -6 8 -21 16 -33 18 -17 2 -23 12 -28 43 -4
22 -5 43 -2 48 8 13 48 8 72 -9 17 -12 42 -16 90 -15 63 2 68 0 99 -32 22 -22
34 -46 36 -68 5 -54 17 -89 32 -89 8 0 13 -8 12 -17 -3 -38 2 -73 12 -73 5 0
26 -11 46 -25 61 -41 110 -52 147 -32 61 31 85 37 91 21 3 -8 1 -26 -4 -40
-17 -43 17 -83 115 -133 68 -35 84 -37 126 -15 28 14 30 19 28 59 -2 30 2 50
14 63 18 20 39 109 27 117 -14 9 -90 126 -90 140 0 8 7 15 15 15 18 0 19 12 3
28 -8 8 -5 14 15 23 21 9 35 9 74 -4 74 -24 120 -30 127 -18 4 6 20 11 37 11
16 0 29 5 29 10 0 6 -9 10 -20 10 -11 0 -20 4 -20 9 0 5 -13 12 -30 16 -16 4
-32 11 -35 16 -4 5 -17 9 -31 9 -13 0 -24 5 -24 10 0 6 -9 10 -20 10 -11 0
-20 5 -20 10 0 6 -11 10 -24 10 -14 0 -28 5 -32 11 -3 6 -17 8 -29 5 -13 -3
-27 -2 -30 4 -3 5 -24 10 -46 10 -21 0 -39 5 -39 10 0 6 -20 10 -44 10 -24 0
-46 4 -48 9 -1 6 -64 11 -139 13 -102 2 -142 0 -162 -11 -24 -13 -25 -15 -9
-27 9 -7 26 -14 37 -14 12 0 25 -4 30 -9 6 -5 28 -12 50 -15 141 -19 197 -30
255 -53 107 -42 123 -72 29 -54 -49 9 -55 8 -68 -10 -18 -26 -37 -24 -57 5 -8
14 -32 30 -52 36 -20 6 -53 20 -72 30 -19 10 -62 26 -95 35 -33 10 -71 23 -85
30 -15 8 -33 9 -45 4 -34 -13 -47 -11 -37 7 21 38 -98 94 -198 94 -22 0 -40 5
-40 10 0 6 -28 10 -65 10 -36 0 -65 3 -65 8 0 4 -34 8 -75 9 -41 1 -80 5 -86
9 -6 3 -36 7 -67 8 -31 1 -93 6 -137 10 -55 6 -77 5 -70 -2z m345 -46 c0 -2
-13 -6 -30 -8 -16 -3 -30 -1 -30 4 0 4 14 8 30 8 17 0 30 -2 30 -4z m21 -113
c28 -13 42 -29 53 -58 9 -23 16 -43 16 -47 0 -6 -62 -30 -65 -26 -1 2 -9 14
-18 28 -9 13 -17 34 -17 47 0 14 -11 28 -30 40 -16 9 -30 21 -30 25 0 14 52 9
91 -9z m214 -203 c3 -5 -1 -10 -9 -10 -9 0 -16 5 -16 10 0 6 4 10 9 10 6 0 13
-4 16 -10z"/>
<path d="M3344 4591 c3 -5 15 -7 26 -4 28 7 25 13 -6 13 -14 0 -23 -4 -20 -9z"/>
<path d="M3225 4544 c-62 -39 -81 -44 -115 -33 -24 9 -38 8 -64 -5 -19 -9 -38
-16 -43 -16 -5 0 -20 -11 -33 -25 -21 -22 -22 -29 -12 -46 15 -24 8 -39 -20
-39 -17 0 -19 -4 -14 -25 5 -21 3 -25 -16 -25 -16 -1 -11 -5 17 -15 57 -21
201 -15 238 9 36 24 52 52 33 59 -18 7 -27 67 -10 67 14 0 27 28 19 40 -9 14
15 23 29 11 6 -6 39 -17 71 -26 32 -8 63 -19 69 -25 20 -20 36 -10 36 24 0 31
-3 34 -45 46 -25 7 -50 21 -56 31 -13 25 -36 23 -84 -7z"/>
<path d="M2375 4550 c-3 -5 -16 -10 -29 -10 -13 0 -38 -8 -57 -17 -19 -10 -42
-16 -51 -15 -10 2 -18 -2 -18 -7 0 -6 -9 -11 -20 -11 -11 0 -20 -4 -20 -9 0
-18 27 -18 64 0 21 10 63 25 94 34 31 9 65 23 76 31 20 14 20 14 -6 14 -15 0
-30 -4 -33 -10z"/>
<path d="M3475 4449 c-4 -11 -4 -23 -1 -26 3 -3 -3 -18 -14 -33 -24 -34 -26
-66 -4 -74 19 -7 87 40 79 55 -4 5 -2 9 4 9 6 0 15 9 21 20 9 17 6 25 -14 45
-31 31 -62 32 -71 4z"/>
<path d="M7543 4383 c-7 -2 -13 -18 -13 -34 0 -30 3 -33 53 -43 22 -5 27 -12
27 -36 0 -33 -25 -52 -58 -43 -13 3 -22 1 -22 -6 0 -8 15 -11 42 -9 34 2 45 8
58 31 13 24 13 30 0 55 -10 17 -26 28 -43 30 -19 2 -27 9 -27 23 0 15 7 19 38
19 27 0 33 3 22 10 -16 10 -56 12 -77 3z"/>
<path d="M15873 4353 c-7 -2 -13 -18 -13 -34 0 -30 3 -33 53 -43 22 -5 27 -12
27 -36 0 -33 -25 -52 -58 -43 -13 3 -22 1 -22 -6 0 -8 15 -11 42 -9 34 2 45 8
58 31 13 24 13 30 0 55 -10 17 -26 28 -43 30 -19 2 -27 9 -27 23 0 15 7 19 38
19 27 0 33 3 22 10 -16 10 -56 12 -77 3z"/>
<path d="M1930 4326 c-85 -29 -118 -47 -156 -84 l-31 -30 39 -5 c22 -3 64 -3
94 0 79 8 74 -20 -16 -96 -50 -42 -67 -50 -117 -56 -63 -8 -87 -17 -119 -48
-20 -19 -86 -47 -113 -47 -8 0 18 32 57 72 52 53 68 75 61 84 -13 16 -50 22
-64 11 -5 -4 -58 -39 -117 -78 -104 -67 -153 -114 -160 -153 -2 -16 5 -22 42
-29 25 -5 50 -13 57 -19 6 -5 29 -6 50 -3 81 14 98 24 130 76 l31 51 17 -26
c24 -36 45 -33 105 15 30 23 67 43 88 46 41 7 182 108 209 150 16 25 12 34
-19 45 -5 2 -12 17 -17 35 -8 26 -5 37 15 64 21 29 24 50 6 48 -4 0 -36 -10
-72 -23z"/>
<path d="M6982 2523 l3 -1808 205 -3 c197 -2 282 5 195 17 l-40 6 -3 438 -2
437 34 0 c48 0 55 18 9 22 l-38 3 -3 438 -2 437 34 0 c48 0 55 18 9 22 l-38 3
-3 438 -2 437 34 0 c48 0 55 18 9 22 l-38 3 -3 438 -2 437 34 0 c19 0 38 5 41
10 4 7 -70 10 -214 10 l-221 0 2 -1807z m338 1011 c0 -540 -4 -804 -12 -865
l-12 -89 -132 0 c-116 0 -133 2 -139 18 -12 26 -23 568 -24 1170 l-1 542 160
0 160 0 0 -776z m-20 -2444 l0 -330 -135 0 -135 0 0 330 0 330 135 0 135 0 0
-330z"/>
<path d="M13216 4305 c-16 -12 -16 -16 -3 -42 8 -16 12 -42 10 -60 -8 -50 3
-79 47 -122 22 -22 40 -46 40 -55 0 -8 9 -20 20 -26 11 -6 20 -15 20 -20 0
-19 -53 -10 -82 15 -16 14 -37 25 -46 25 -36 0 -97 -29 -138 -65 l-44 -37 60
-58 c66 -64 101 -127 78 -141 -24 -15 -37 -10 -69 30 -19 25 -43 43 -63 47
-17 3 -48 22 -69 40 -21 20 -48 34 -62 34 -28 0 -26 13 -29 -165 -1 -69 3
-104 11 -113 18 -18 16 -52 -3 -73 -21 -23 -21 -119 -2 -174 17 -46 41 -54 87
-31 16 9 41 16 56 16 28 0 31 12 14 75 -22 81 -20 91 24 130 30 28 45 35 56
28 23 -15 31 -58 15 -82 -8 -11 -10 -22 -5 -25 5 -3 12 -18 16 -33 3 -15 13
-32 22 -38 9 -7 16 -30 17 -63 1 -28 5 -55 9 -58 4 -4 21 -3 39 2 23 7 34 17
36 32 4 28 26 28 76 -1 52 -30 56 -45 12 -44 -45 1 -48 -3 -36 -40 10 -27 8
-34 -21 -67 -18 -20 -41 -36 -52 -36 -15 0 -18 -6 -16 -37 1 -21 -5 -55 -15
-75 -11 -23 -15 -45 -11 -55 4 -10 8 -36 8 -58 0 -28 8 -50 27 -75 15 -19 30
-52 34 -74 7 -36 5 -41 -30 -72 -33 -31 -36 -37 -26 -58 6 -14 20 -27 31 -31
12 -3 21 -11 21 -16 0 -15 32 -10 51 7 18 16 18 18 0 43 -26 37 -18 131 11
131 31 0 76 -38 83 -70 4 -16 11 -32 16 -36 23 -14 51 -90 55 -153 7 -109 26
-152 53 -119 5 7 23 28 39 47 l29 35 7 -37 c4 -20 11 -37 17 -37 5 0 28 -17
50 -38 38 -37 103 -67 120 -56 5 3 16 22 25 42 8 20 20 45 25 54 5 10 9 28 9
41 0 13 4 27 9 33 11 10 -1 161 -20 262 -10 54 -10 65 4 80 15 17 14 22 -12
78 -43 90 -74 122 -127 130 -27 4 -48 13 -54 24 -5 10 -20 20 -32 24 -13 3
-39 21 -59 38 -32 29 -79 68 -113 91 -8 6 -5 12 8 20 10 7 26 20 35 30 8 9 20
17 27 17 20 0 42 34 55 85 6 28 16 54 20 60 5 5 9 15 9 22 0 7 11 31 25 53 42
67 28 120 -33 120 -20 0 -52 29 -52 48 0 22 31 12 61 -18 l30 -30 23 24 c18
17 26 39 31 87 5 47 12 68 28 80 23 19 17 49 -11 49 -16 0 -59 56 -50 66 3 2
18 -3 35 -11 26 -13 57 -43 145 -142 12 -14 32 -23 49 -23 15 0 51 -13 79 -30
28 -16 54 -30 57 -30 3 0 11 -8 18 -17 12 -17 15 -17 50 0 35 17 37 17 68 -6
46 -34 71 -42 63 -20 -24 65 -184 273 -209 273 -5 0 -18 10 -28 21 -14 16 -22
19 -31 11 -16 -13 -35 1 -62 43 -11 17 -30 38 -43 48 -13 10 -21 23 -18 28 4
5 -3 9 -14 9 -11 0 -30 14 -43 30 -12 17 -30 30 -40 30 -10 0 -21 7 -24 15 -4
8 -12 15 -19 15 -7 0 -18 7 -25 15 -7 9 -46 32 -86 51 -60 30 -79 35 -106 28
-50 -12 -79 -5 -116 28 -54 47 -129 72 -156 53z m346 -255 c73 -35 83 -46 72
-77 -13 -37 -31 -39 -87 -8 -37 21 -47 32 -47 52 0 14 -10 35 -22 46 l-23 20
32 -6 c17 -3 51 -16 75 -27z m223 -101 c5 -5 16 -9 25 -9 8 0 20 -11 27 -25 9
-20 8 -25 -2 -25 -8 0 -17 5 -20 10 -3 6 -18 10 -33 10 -17 0 -38 12 -57 32
l-30 31 40 -7 c22 -4 44 -12 50 -17z m-451 -286 c-1 -7 -2 -31 -2 -53 -2 -37
-4 -40 -29 -40 -38 0 -63 17 -44 29 7 5 10 14 7 20 -4 6 -2 11 3 11 6 0 11 12
11 26 0 22 4 25 28 22 15 -2 27 -9 26 -15z m182 -245 c1 -28 -16 -41 -41 -32
-31 12 -8 68 25 62 9 -2 15 -15 16 -30z m-256 -88 c0 -5 -2 -10 -4 -10 -3 0
-8 5 -11 10 -3 6 -1 10 4 10 6 0 11 -4 11 -10z m177 -157 c-3 -3 -13 1 -21 10
-8 8 -12 17 -9 20 3 3 12 -1 20 -9 9 -8 13 -18 10 -21z m-124 -128 c4 -8 21
-18 38 -23 33 -8 42 -19 98 -127 19 -37 33 -51 53 -55 55 -10 92 -71 52 -87
-16 -6 -25 -2 -116 50 -75 42 -98 62 -98 86 0 11 -6 24 -13 28 -7 4 -19 24
-27 43 -8 19 -17 37 -21 40 -4 3 -11 18 -14 33 -6 24 -4 27 18 27 14 0 27 -7
30 -15z m357 -102 c-1 -27 -1 -27 -15 -9 -19 25 -19 36 0 36 10 0 15 -10 15
-27z m98 -321 c30 -38 3 -134 -28 -97 -7 8 -28 15 -46 15 -27 0 -34 4 -34 19
0 10 7 21 15 25 8 3 15 14 15 24 0 42 49 51 78 14z"/>
<path d="M15312 2493 l3 -1808 205 -3 c197 -2 282 5 195 17 l-40 6 -3 438 -2
437 34 0 c48 0 55 18 9 22 l-38 3 -3 438 -2 437 34 0 c48 0 55 18 9 22 l-38 3
-3 438 -2 437 34 0 c48 0 55 18 9 22 l-38 3 -3 438 -2 437 34 0 c19 0 38 5 41
10 4 7 -70 10 -214 10 l-221 0 2 -1807z m338 1011 c0 -540 -4 -804 -12 -865
l-12 -89 -132 0 c-116 0 -133 2 -139 18 -12 26 -23 568 -24 1170 l-1 542 160
0 160 0 0 -776z m-20 -2444 l0 -330 -135 0 -135 0 0 330 0 330 135 0 135 0 0
-330z"/>
<path d="M2703 4260 c-23 -5 -54 -16 -70 -24 -47 -25 -110 -89 -132 -132 -11
-23 -27 -44 -36 -47 -19 -8 -20 -57 -2 -57 8 0 27 -7 43 -15 25 -12 38 -12 84
-1 30 7 65 18 77 24 29 16 43 15 43 -2 0 -8 9 -17 19 -21 27 -8 31 -26 19 -76
-7 -29 -24 -57 -50 -83 -49 -48 -40 -61 32 -45 81 17 115 35 150 76 29 35 31
42 24 88 -4 28 -7 59 -8 70 0 11 -9 26 -18 33 -10 7 -18 20 -18 28 0 8 -6 17
-14 20 -8 3 -12 12 -9 19 2 8 -1 31 -8 52 -9 28 -9 38 0 41 6 2 8 9 4 15 -4 7
-8 19 -8 27 0 18 -58 23 -122 10z m54 -75 c4 -13 -33 -55 -48 -55 -19 0 -21
31 -3 51 18 20 45 22 51 4z"/>
<path d="M3057 4256 c-43 -16 -40 -14 -54 -40 -12 -22 4 -86 24 -99 7 -4 13
-15 13 -23 0 -8 30 -28 68 -47 38 -17 67 -37 65 -43 -6 -17 55 -23 75 -8 24
18 29 17 35 -8 7 -24 -6 -54 -35 -82 -34 -32 -6 -42 48 -17 42 20 46 25 41 50
-3 16 -3 32 0 35 20 19 10 44 -22 59 -19 9 -35 22 -35 28 0 5 -16 27 -35 47
-19 20 -35 43 -35 50 0 6 -7 12 -15 12 -8 0 -15 4 -15 10 0 5 -10 19 -22 30
-13 12 -23 29 -23 38 0 22 -30 25 -78 8z"/>
<path d="M3464 4200 c-11 -5 -34 -6 -52 -4 -33 4 -62 -23 -62 -58 0 -22 26
-24 34 -3 6 18 57 20 73 4 15 -15 28 -6 46 30 13 26 13 30 -2 34 -9 2 -26 1
-37 -3z"/>
<path d="M13095 4143 c-9 -20 -14 -44 -13 -52 5 -23 36 -26 58 -6 32 29 34 53
8 75 -32 27 -36 25 -53 -17z"/>
<path d="M2351 4116 c-19 -20 -21 -28 -12 -45 17 -30 35 -26 70 17 l31 37 -22
7 c-38 10 -44 9 -67 -16z"/>
<path d="M3595 4104 c-9 -14 -14 -33 -10 -42 6 -15 9 -14 26 7 20 24 26 61 10
61 -5 0 -16 -12 -26 -26z"/>
<path d="M12535 4050 c-9 -14 11 -37 47 -56 25 -13 29 -13 34 1 8 19 -13 45
-35 45 -9 0 -22 5 -28 11 -8 8 -13 8 -18 -1z"/>
<path d="M2983 3982 c-21 -14 -20 -47 3 -50 25 -4 47 20 38 42 -7 17 -22 20
-41 8z"/>
<path d="M1998 3954 c-26 -27 -82 -43 -149 -44 -20 0 -42 -6 -48 -14 -6 -7
-30 -19 -54 -25 -54 -16 -67 -26 -99 -81 -14 -25 -38 -55 -52 -67 -40 -35 -34
-53 17 -53 47 0 72 24 72 70 0 18 6 25 21 26 28 1 124 34 124 42 0 4 16 18 36
31 33 23 37 24 62 9 15 -9 49 -16 75 -16 40 -1 52 3 70 25 32 38 81 83 90 83
4 0 7 9 7 21 0 21 -16 21 -82 3 -10 -3 -18 -1 -18 5 0 21 -46 11 -72 -15z"/>
<path d="M2316 3962 c-3 -6 -19 -13 -34 -17 -15 -3 -42 -19 -61 -35 -18 -17
-41 -30 -50 -30 -9 0 -27 -9 -41 -20 -14 -11 -30 -20 -36 -20 -12 0 -24 -22
-24 -43 0 -7 18 -13 42 -15 22 -1 44 -5 49 -7 4 -3 13 -37 20 -75 9 -52 16
-70 28 -70 24 0 90 -25 103 -38 13 -13 57 -16 74 -4 22 15 64 80 64 99 0 10 9
29 20 41 11 12 20 26 20 32 0 5 5 10 10 10 18 0 11 76 -10 103 -11 14 -20 32
-20 40 0 7 -8 21 -17 30 -22 19 -128 34 -137 19z"/>
<path d="M9808 3884 c-29 -31 -77 -81 -105 -111 -29 -30 -53 -60 -53 -67 0 -7
-12 -26 -28 -42 -15 -16 -45 -65 -67 -109 -22 -44 -42 -82 -45 -85 -13 -13
-30 -52 -30 -69 0 -11 -4 -22 -9 -26 -5 -3 -13 -19 -16 -37 -4 -17 -16 -47
-26 -65 -11 -19 -19 -42 -19 -53 0 -10 -4 -22 -10 -25 -5 -3 -10 -16 -10 -28
0 -12 -7 -35 -15 -51 -8 -15 -15 -37 -15 -47 0 -11 -4 -19 -9 -19 -5 0 -7 -9
-4 -20 3 -12 -1 -22 -11 -26 -9 -3 -16 -14 -16 -24 0 -11 -4 -22 -10 -25 -5
-3 -12 -28 -16 -56 -4 -27 -11 -52 -15 -55 -5 -3 -9 -16 -9 -29 0 -13 -4 -27
-10 -30 -5 -3 -10 -17 -10 -31 0 -13 -4 -24 -9 -24 -5 0 -12 -31 -16 -70 -4
-38 -11 -70 -16 -70 -5 0 -9 -15 -9 -34 0 -19 -4 -38 -10 -41 -5 -3 -10 -19
-10 -35 0 -16 -4 -32 -10 -35 -5 -3 -10 -22 -10 -41 0 -19 -4 -34 -9 -34 -5 0
-12 -30 -16 -67 -7 -65 -9 -74 -33 -120 -7 -13 -12 -32 -12 -43 0 -11 -4 -20
-10 -20 -5 0 -10 -15 -10 -34 0 -19 -4 -38 -10 -41 -5 -3 -10 -22 -10 -41 0
-19 -4 -34 -10 -34 -5 0 -9 -12 -9 -27 -1 -52 -13 -128 -22 -137 -5 -6 -9 -47
-9 -93 0 -49 -4 -83 -10 -83 -6 0 -10 -35 -10 -84 0 -47 5 -88 10 -91 6 -3 10
-42 10 -86 0 -46 4 -78 9 -75 14 9 41 -4 41 -20 0 -8 7 -14 16 -14 14 0 16 -8
10 -49 -5 -39 -3 -50 9 -55 8 -3 15 -1 15 5 0 7 10 9 25 5 42 -11 43 20 2 62
-25 25 -34 41 -28 51 7 11 13 11 37 0 37 -18 56 -55 42 -84 -8 -17 -6 -29 7
-49 22 -33 35 -23 42 33 4 28 9 39 16 32 6 -6 16 -6 28 2 13 8 24 8 44 -1 18
-8 32 -9 45 -2 10 5 30 10 44 10 47 0 66 82 23 101 -36 16 -45 39 -37 98 9 69
3 99 -24 113 -11 6 -42 33 -67 60 l-47 48 19 37 c11 21 19 45 19 55 0 11 5 15
15 12 8 -4 15 -11 15 -18 0 -6 14 -19 30 -28 17 -9 30 -13 30 -8 0 6 8 10 18
10 11 0 26 8 34 18 14 16 48 84 48 96 0 3 10 15 23 28 21 21 25 22 40 8 13
-13 15 -27 10 -67 -5 -46 -3 -52 17 -63 20 -10 26 -9 48 13 33 34 45 153 17
180 -16 16 -19 16 -41 3 -30 -20 -34 -12 -41 74 -6 72 -26 109 -38 72 -3 -11
-5 -24 -4 -28 2 -5 -3 -21 -10 -36 -16 -31 -41 -27 -41 7 0 33 -10 36 -55 14
-51 -25 -73 -53 -81 -108 -5 -31 -12 -45 -25 -48 -14 -4 -19 -15 -19 -39 0
-39 -11 -43 -33 -11 -14 22 -15 22 -36 3 -11 -11 -21 -25 -21 -33 0 -15 -53
-73 -65 -73 -4 0 -5 13 -2 29 3 16 0 36 -7 47 -13 20 -46 104 -46 118 0 4 9 4
21 1 21 -7 118 34 137 58 18 24 34 113 33 192 -1 44 3 95 8 112 12 42 -3 52
-22 16 -7 -16 -23 -44 -34 -63 -11 -19 -28 -56 -38 -82 -10 -27 -21 -48 -26
-48 -16 0 -4 183 14 219 9 19 17 48 18 65 0 26 2 28 8 11 8 -20 8 -20 15 1 3
12 4 28 0 37 -3 9 -3 21 1 28 11 17 25 -10 25 -48 0 -39 27 -46 49 -12 10 16
15 19 21 9 12 -19 32 -1 25 21 -4 11 3 40 15 67 55 119 56 122 19 122 -14 0
-19 7 -19 29 0 17 -5 33 -11 37 -7 4 -9 22 -6 45 3 22 1 39 -4 39 -12 0 1 51
17 67 18 18 24 16 24 -7 0 -30 20 -24 67 19 61 57 75 91 80 194 3 86 3 88 -17
82 -20 -6 -21 -4 -15 29 5 23 3 36 -3 36 -6 0 -12 -6 -15 -12 -2 -7 -2 0 1 16
2 16 13 38 23 50 19 20 19 20 20 -5 0 -14 3 -18 6 -9 3 8 18 43 35 77 20 41
28 69 23 80 -7 16 -9 15 -15 -7 -6 -18 -8 -20 -9 -7 -1 11 7 31 18 45 31 44
61 102 61 117 0 16 85 105 100 105 12 0 -12 -61 -40 -100 -11 -15 -20 -31 -20
-35 0 -3 -13 -25 -29 -48 -23 -34 -29 -56 -32 -107 -5 -82 15 -88 49 -17 13
27 44 69 69 94 38 39 43 47 29 55 -25 14 -20 47 9 54 30 8 80 71 80 103 0 22
4 24 50 25 47 1 50 2 60 36 5 19 13 40 17 45 14 23 0 106 -21 129 -16 17 -20
30 -15 50 6 24 4 26 -29 26 -30 0 -44 -8 -89 -56z m59 -6 c-3 -8 -6 -5 -6 6
-1 11 2 17 5 13 3 -3 4 -12 1 -19z m-818 -2130 c-12 -41 -13 -42 -17 -14 -2
16 2 40 9 54 19 34 23 12 8 -40z m101 -134 c0 -14 -4 -23 -10 -19 -5 3 -10 15
-10 26 0 10 5 19 10 19 6 0 10 -12 10 -26z m-13 -125 c2 -8 -1 -21 -7 -29 -8
-13 -11 -12 -24 5 -9 11 -16 28 -16 37 0 14 5 16 23 9 12 -5 23 -14 24 -22z"/>
<path d="M1205 3881 c-55 -50 -70 -71 -53 -71 8 0 34 23 57 50 46 54 44 66 -4
21z"/>
<path d="M12210 3875 c-25 -13 -53 -27 -62 -31 -22 -8 -24 -50 -3 -58 9 -3 19
3 25 14 6 11 23 23 38 26 35 9 62 32 62 56 0 23 -6 23 -60 -7z"/>
<path d="M12560 3819 c-30 -16 -56 -34 -58 -39 -2 -6 -9 -10 -16 -10 -16 0
-52 -39 -60 -66 -4 -14 0 -27 14 -39 11 -10 25 -35 30 -56 8 -30 16 -38 37
-41 19 -2 29 -11 34 -30 5 -21 4 -28 -7 -28 -10 0 -14 -13 -14 -43 0 -24 -7
-53 -17 -67 -12 -17 -18 -50 -21 -110 -2 -47 -5 -96 -6 -110 -2 -14 -4 -34 -5
-46 0 -11 -7 -29 -15 -39 -12 -17 -16 -17 -30 -6 -9 8 -19 12 -22 9 -7 -8 18
-58 29 -58 5 0 27 -18 49 -40 47 -47 67 -49 114 -14 29 22 34 33 34 66 0 22 5
48 11 59 6 11 10 51 10 89 0 38 4 72 9 75 6 4 10 20 10 38 0 22 -8 38 -27 53
-27 22 -27 23 -10 41 24 25 53 6 49 -31 -6 -48 46 -83 86 -57 10 6 9 15 -8 44
-25 42 -20 70 16 93 36 24 32 60 -8 72 -60 18 -89 23 -101 15 -34 -21 -64 -12
-106 33 -41 44 -42 46 -26 70 9 14 13 33 10 45 -5 13 3 28 24 50 27 26 37 30
73 27 37 -3 44 0 57 23 8 14 11 33 8 42 -10 27 -83 20 -147 -14z m39 -590 c-5
-10 -14 -19 -19 -19 -17 0 -21 19 -8 39 17 27 43 8 27 -20z"/>
<path d="M1188 3797 c-26 -20 -53 -53 -68 -84 -14 -28 -38 -59 -53 -68 -39
-23 -131 -121 -139 -148 -3 -12 -6 -34 -7 -48 -1 -25 1 -26 33 -19 61 14 126
75 126 120 0 11 6 23 13 25 6 3 13 20 14 37 3 39 20 57 70 74 34 12 40 11 58
-6 12 -11 27 -20 34 -20 11 0 11 -3 1 -15 -11 -13 -10 -14 4 -9 12 5 16 0 16
-19 0 -14 -6 -27 -14 -30 -9 -4 -13 -17 -11 -41 3 -32 -2 -40 -44 -75 -37 -31
-61 -42 -110 -51 -35 -6 -77 -17 -94 -25 -18 -8 -44 -16 -58 -19 -31 -7 -44
-53 -22 -82 17 -23 17 -49 0 -63 -11 -8 -18 -2 -33 27 -11 20 -27 37 -36 37
-26 0 -131 -143 -127 -173 2 -9 -5 -31 -14 -49 -9 -18 -17 -45 -17 -61 0 -31
-16 -52 -40 -52 -11 0 -22 -19 -35 -57 -18 -56 -19 -57 -26 -28 -6 28 -7 28
-8 -10 0 -23 -6 -46 -11 -51 -14 -14 -14 -252 -1 -287 6 -15 16 -27 23 -27 10
0 13 19 12 73 0 41 -4 79 -7 84 -4 6 4 20 18 33 l23 22 16 -30 c9 -17 16 -37
16 -44 0 -35 93 -71 96 -38 3 44 4 46 19 26 14 -18 15 -10 15 82 l0 102 -32
29 c-31 28 -32 29 -15 55 11 16 27 26 41 26 21 0 26 -7 34 -47 6 -26 9 -51 6
-54 -8 -13 19 -59 34 -59 18 0 82 65 118 119 16 26 39 44 60 51 23 8 41 24 54
48 25 46 67 98 75 91 3 -3 -7 -27 -21 -53 -23 -41 -25 -53 -18 -89 7 -34 14
-42 31 -42 12 0 24 -3 28 -7 11 -11 -25 -56 -49 -62 -13 -3 -37 -21 -54 -40
-31 -36 -45 -34 -53 7 -2 10 -7 18 -11 18 -5 -1 -17 -1 -28 -1 -11 0 -20 -7
-20 -15 0 -8 -6 -15 -14 -15 -16 0 -35 -66 -38 -140 -3 -45 0 -55 14 -58 12
-2 27 13 49 52 17 31 35 56 40 56 5 0 9 -19 9 -42 0 -52 14 -137 40 -249 13
-54 64 -121 85 -112 8 3 15 10 15 15 0 16 54 88 66 88 14 0 64 -53 64 -68 0
-21 20 -13 29 11 5 13 16 29 25 36 12 11 15 25 11 60 -4 32 -1 52 9 65 17 21
36 14 36 -15 0 -10 5 -19 11 -19 6 0 20 -11 31 -25 23 -29 59 -33 79 -7 17 20
49 88 49 104 0 6 12 27 26 45 34 44 102 74 154 68 35 -5 42 -2 71 33 34 41 36
46 44 187 2 50 5 90 6 90 1 0 3 13 5 29 4 39 7 40 48 21 47 -23 52 -32 29 -58
-43 -49 -54 -76 -49 -125 3 -26 5 -53 5 -59 2 -27 51 -13 85 23 29 30 33 40
27 67 -14 61 -8 92 17 95 18 3 22 -1 22 -23 0 -14 7 -36 15 -49 20 -30 69 -24
93 12 9 14 53 61 97 104 58 57 76 81 67 87 -10 6 -7 15 15 38 74 79 98 117
133 215 12 32 26 60 31 63 15 10 10 57 -8 71 -26 19 -57 17 -83 -6 -13 -11
-24 -20 -26 -20 -2 0 0 22 3 49 5 47 4 50 -17 48 -22 -1 -64 -49 -53 -60 3 -4
1 -13 -6 -21 -8 -9 -8 -21 -1 -40 11 -29 14 -30 40 -16 13 7 19 6 23 -4 7 -17
-15 -123 -37 -184 -8 -23 -15 -43 -15 -45 1 -1 -5 -14 -12 -29 -14 -31 -45
-37 -53 -10 -6 21 -1 81 9 105 4 10 2 29 -6 43 -10 20 -19 24 -43 22 -26 -2
-35 -11 -54 -50 -18 -37 -21 -51 -13 -67 15 -28 -2 -71 -29 -71 -14 0 -20 7
-22 23 -2 36 -3 41 -11 53 -4 7 -1 27 7 45 19 47 12 57 -36 53 l-41 -4 5 45
c5 41 4 45 -16 45 -11 0 -27 4 -34 8 -7 5 -42 5 -79 0 -54 -8 -69 -6 -81 6
-13 13 -10 16 29 26 24 7 67 18 96 27 35 10 70 12 106 8 39 -5 57 -3 62 5 5 8
1 16 -9 22 -10 5 -15 17 -12 26 3 9 8 34 10 55 5 33 3 37 -17 37 -12 0 -34 -6
-48 -14 -37 -19 -53 -7 -39 28 12 33 6 46 -21 46 -31 0 -52 28 -51 65 l1 32
-47 -9 c-26 -6 -65 -11 -86 -13 -30 -2 -44 -9 -60 -31 -11 -16 -26 -33 -33
-37 -15 -9 -17 -63 -3 -72 6 -3 10 -15 10 -25 0 -42 85 -74 131 -49 36 19 45
3 14 -24 -37 -33 -31 -26 -123 -125 -42 -46 -82 -95 -87 -108 -6 -13 -22 -36
-37 -51 -14 -16 -33 -41 -43 -58 -39 -71 -63 -106 -107 -164 -27 -34 -48 -63
-48 -65 0 -3 10 -6 23 -8 14 -2 23 -11 25 -25 3 -18 -3 -23 -33 -29 -44 -8
-48 -4 -36 30 9 21 8 26 -5 26 -9 0 -27 -9 -42 -20 -19 -16 -27 -18 -33 -8 -9
14 7 38 25 38 7 0 19 16 26 36 8 20 21 41 30 48 18 13 50 61 50 75 0 5 -13 17
-30 25 -16 9 -44 23 -61 32 -38 20 -92 11 -132 -22 -39 -33 -53 -30 -27 6 12
16 23 48 26 72 6 44 12 60 53 125 16 25 41 48 65 59 21 10 51 30 67 45 19 17
29 22 29 13 0 -8 -4 -14 -9 -14 -5 0 -12 -11 -15 -25 -4 -14 -11 -25 -16 -25
-6 0 -10 -6 -10 -12 -1 -16 -30 -50 -55 -64 -11 -6 -30 -26 -43 -45 -12 -19
-30 -42 -38 -52 -9 -11 -14 -20 -12 -20 2 -1 13 -7 25 -14 12 -7 23 -9 25 -4
2 4 21 21 43 37 84 61 92 72 100 132 8 71 42 112 91 112 18 0 34 -6 37 -12 3
-10 9 -10 29 1 l26 13 -38 34 c-23 21 -48 34 -65 34 -23 0 -26 4 -22 21 8 28
-30 42 -123 43 -100 2 -103 22 -6 53 38 12 76 29 86 38 17 15 40 85 40 119 0
21 -84 22 -133 1 -43 -18 -47 -18 -47 -5 0 20 -55 59 -82 60 -15 0 -45 -14
-70 -33z m-63 -613 c0 -41 -3 -49 -20 -53 -11 -2 -31 -12 -44 -22 -13 -11 -34
-19 -47 -19 -21 0 -24 5 -24 39 0 35 6 44 47 79 36 31 51 38 67 32 17 -6 21
-16 21 -56z m1069 -240 c9 -22 -1 -34 -30 -34 -27 0 -28 3 -14 31 13 23 36 25
44 3z m-504 -63 c0 -12 -20 -25 -27 -18 -7 7 6 27 18 27 5 0 9 -4 9 -9z m-110
-192 c5 -17 5 -31 -1 -35 -5 -3 -7 -9 -4 -14 3 -5 -9 -19 -27 -31 -18 -13 -34
-27 -36 -31 -8 -18 -20 -6 -25 25 -5 34 26 113 53 134 17 13 26 3 40 -48z
m-344 -196 c-10 -10 -19 5 -10 18 6 11 8 11 12 0 2 -7 1 -15 -2 -18z"/>
<path d="M12366 3804 c-11 -28 -6 -38 9 -18 8 10 15 22 15 27 0 13 -18 7 -24
-9z"/>
<path d="M2784 3732 c-33 -21 -43 -35 -48 -62 -6 -39 5 -56 28 -43 13 7 86
117 86 129 0 10 -29 0 -66 -24z"/>
<path d="M2893 3748 c-18 -23 -21 -57 -7 -75 13 -17 15 -17 29 1 19 25 19 60
1 75 -10 8 -16 8 -23 -1z"/>
<path d="M10375 3727 c-11 -7 -22 -13 -25 -15 -8 -5 80 -82 95 -82 8 0 15 -4
15 -10 0 -5 16 -17 36 -26 32 -16 37 -16 51 -1 23 23 3 64 -34 73 -45 9 -70
25 -82 50 -12 26 -26 29 -56 11z"/>
<path d="M4650 3645 c0 -23 26 -35 72 -35 50 0 59 8 31 31 -19 17 -103 19
-103 4z"/>
<path d="M10632 3624 c-25 -17 -29 -39 -7 -48 14 -5 45 17 45 32 -1 24 -17 31
-38 16z"/>
<path d="M12047 3618 c-9 -7 -19 -25 -23 -40 -9 -39 16 -37 39 3 27 47 20 64
-16 37z"/>
<path d="M12334 3590 c-4 -22 -10 -43 -15 -46 -4 -2 -6 -11 -3 -19 3 -8 -7
-30 -22 -50 -23 -30 -27 -45 -26 -93 4 -155 17 -197 72 -224 46 -22 50 -22 48
5 -2 32 34 138 49 144 10 4 9 12 -4 36 -10 18 -16 38 -14 46 1 7 -3 26 -9 41
-9 22 -8 35 4 65 21 50 20 59 -9 91 -14 15 -25 31 -25 35 0 5 -9 9 -20 9 -15
0 -21 -9 -26 -40z"/>
<path d="M13774 3611 c-12 -9 -29 -33 -38 -52 -15 -32 -15 -39 -1 -72 8 -20
22 -37 30 -37 8 0 15 -4 15 -10 0 -6 29 -10 68 -10 60 0 72 -3 102 -29 26 -21
32 -32 24 -41 -8 -8 -18 -8 -40 0 -30 12 -94 5 -94 -9 0 -16 -63 -70 -89 -76
-34 -8 -101 -54 -115 -80 -6 -11 -15 -23 -20 -26 -24 -18 50 -139 85 -139 7 0
21 -8 31 -17 17 -15 20 -15 28 -3 8 13 14 13 41 -2 44 -25 62 -22 79 14 8 18
21 34 28 36 35 11 53 -146 22 -195 -12 -19 -11 -25 15 -60 16 -21 35 -41 41
-46 7 -4 19 -14 26 -21 27 -26 75 -45 117 -44 41 0 43 1 36 27 -17 70 -17 85
1 119 l18 34 12 -45 c8 -32 9 -62 2 -98 -7 -36 -6 -60 1 -76 15 -33 14 -48 -2
-35 -7 6 -30 13 -51 15 -21 2 -42 10 -46 17 -10 16 -91 15 -101 -1 -3 -6 -5
-19 -2 -28 2 -9 -5 -25 -17 -36 -28 -25 -60 -100 -60 -139 0 -18 -11 -56 -25
-84 -26 -54 -33 -106 -15 -117 13 -8 13 -45 0 -45 -14 0 -23 -62 -13 -101 7
-27 15 -35 37 -37 15 -2 34 2 42 9 20 16 102 54 137 63 15 3 27 11 27 16 0 6
6 10 14 10 14 0 66 61 66 78 0 18 41 102 50 102 11 0 23 -37 15 -50 -3 -5 -1
-19 6 -31 11 -21 11 -21 39 10 27 29 58 39 74 24 3 -4 -5 -16 -19 -27 -18 -15
-28 -37 -36 -79 -14 -78 -4 -89 38 -42 18 21 36 35 39 32 7 -7 -37 -86 -73
-132 -58 -75 -72 -89 -133 -130 -40 -27 -77 -63 -96 -92 -25 -38 -47 -56 -105
-86 -41 -20 -86 -37 -101 -37 -19 0 -33 -8 -45 -26 -18 -29 -95 -66 -117 -58
-8 3 -17 1 -21 -5 -3 -7 3 -11 16 -11 36 0 4 -27 -42 -35 -33 -6 -38 -9 -28
-21 6 -8 20 -14 30 -14 22 0 111 39 120 53 13 18 114 58 135 53 24 -6 31 -1
131 89 31 28 65 57 77 65 36 24 70 60 135 140 73 90 72 89 94 120 11 16 17 19
17 9 0 -8 -7 -24 -15 -35 -22 -30 -20 -51 4 -30 11 10 25 15 30 11 6 -3 11 1
11 10 0 9 10 25 21 34 17 14 20 23 14 49 -3 18 -13 32 -21 32 -8 0 -14 9 -14
19 0 11 -4 22 -9 26 -5 3 -7 30 -4 60 4 37 2 55 -5 55 -9 0 -8 8 0 28 18 42
31 51 24 16 -9 -42 8 -84 34 -84 11 0 24 -8 27 -17 15 -41 63 -46 63 -8 0 14
5 25 10 25 6 0 10 11 10 24 0 14 5 28 10 31 6 3 10 26 10 51 0 24 3 44 8 44
12 0 8 280 -4 288 -6 4 -14 27 -17 51 -3 25 -12 48 -21 53 -11 6 -14 26 -13
86 1 65 -2 85 -24 127 -20 41 -33 52 -65 63 -21 7 -51 11 -67 8 -24 -5 -32 1
-62 42 -18 26 -57 67 -85 92 -29 25 -62 65 -75 92 -34 71 -6 77 50 10 19 -22
30 -30 35 -22 17 27 70 -13 130 -98 17 -23 41 -47 54 -52 13 -5 32 -19 42 -33
11 -13 29 -29 41 -35 24 -13 44 -16 28 -4 -6 4 -19 34 -30 67 -10 33 -22 62
-25 65 -3 3 -12 19 -20 35 -8 17 -22 37 -30 45 -8 8 -22 29 -30 45 -21 42 -59
104 -93 148 -25 32 -34 37 -71 37 -23 0 -47 5 -53 11 -15 15 -33 3 -33 -21 0
-10 -4 -22 -10 -25 -5 -3 -10 -27 -10 -53 l0 -46 -17 24 c-10 14 -29 47 -43
75 -32 64 -67 72 -101 26 -13 -17 -28 -31 -33 -30 -6 0 -35 31 -64 69 -64 84
-80 94 -108 71z m276 -476 c0 -9 -6 -12 -15 -9 -8 4 -15 10 -15 15 0 5 7 9 15
9 8 0 15 -7 15 -15z m124 -74 c25 -27 37 -80 25 -103 -10 -18 -13 -15 -35 28
-37 72 -30 120 10 75z m-66 -156 c17 -37 15 -45 -11 -45 -24 0 -53 42 -42 61
12 18 42 9 53 -16z m392 -150 c0 -8 -7 -15 -15 -15 -8 0 -15 7 -15 15 0 8 7
15 15 15 8 0 15 -7 15 -15z m-222 -226 c1 -45 4 -89 7 -98 2 -9 1 -28 -3 -43
-5 -21 -11 -25 -22 -18 -12 7 -13 19 -3 77 11 61 10 70 -8 99 -24 39 -24 44 1
44 11 0 20 5 20 10 0 6 2 10 4 10 2 0 4 -37 4 -81z m-244 -235 c11 -28 6 -39
-23 -57 -26 -15 -30 -15 -35 -1 -9 25 -7 49 6 62 17 17 45 15 52 -4z m-74
-114 c0 -5 -7 -10 -15 -10 -8 0 -15 5 -15 10 0 6 7 10 15 10 8 0 15 -4 15 -10z"/>
<path d="M2841 3583 c-17 -41 -12 -184 7 -205 8 -10 12 -18 7 -18 -4 0 -2 -7
5 -16 8 -8 25 -14 39 -12 35 3 51 -8 51 -36 0 -57 56 -57 74 0 5 16 12 38 16
49 33 90 35 146 8 184 -14 20 -22 22 -56 16 -36 -6 -42 -3 -63 24 -13 16 -36
33 -50 36 -22 5 -28 2 -38 -22z"/>
<path d="M9895 3600 c-3 -5 -1 -10 4 -10 6 0 11 5 11 10 0 6 -2 10 -4 10 -3 0
-8 -4 -11 -10z"/>
<path d="M10850 3554 c0 -40 3 -55 10 -48 16 16 18 96 3 101 -10 3 -13 -11
-13 -53z"/>
<path d="M4250 3593 c-21 -8 -38 -31 -57 -76 -9 -21 -28 -44 -44 -52 -35 -18
-65 -50 -84 -88 -13 -26 -13 -28 1 -23 50 19 64 18 64 -3 0 -12 6 -21 13 -21
44 0 197 105 197 136 0 8 7 14 15 14 20 0 29 43 16 69 -21 37 -81 59 -121 44z"/>
<path d="M4518 3565 c-10 -13 -18 -26 -18 -29 0 -6 126 -46 146 -46 8 0 14 6
14 14 0 8 14 19 30 25 60 20 34 37 -70 44 -30 2 -62 6 -70 10 -10 4 -21 -2
-32 -18z"/>
<path d="M3159 3558 c-23 -19 -40 -66 -28 -74 6 -3 9 -18 8 -32 -2 -15 1 -33
5 -41 12 -19 46 57 52 115 4 46 -7 56 -37 32z"/>
<path d="M4754 3536 c-3 -8 -5 -20 -3 -27 3 -29 -2 -37 -41 -64 -47 -32 -50
-55 -14 -84 35 -28 52 -26 66 4 7 15 19 25 33 25 32 0 45 19 45 68 0 35 -6 50
-26 68 -28 27 -52 31 -60 10z"/>
<path d="M3215 3504 c-20 -32 -16 -38 19 -25 29 12 33 23 12 40 -11 9 -17 6
-31 -15z"/>
<path d="M9916 3503 c-11 -11 -6 -21 14 -26 11 -3 22 -1 25 3 7 11 -30 32 -39
23z"/>
<path d="M2733 3479 c-6 -8 -14 -25 -18 -39 -4 -14 -16 -37 -26 -52 -23 -32
-24 -38 -4 -38 8 0 15 -4 15 -10 0 -16 46 -12 60 5 11 13 11 27 0 73 -7 31
-13 61 -14 66 -1 4 -7 2 -13 -5z"/>
<path d="M7545 3475 c6 -2 22 -6 38 -9 18 -4 27 -13 27 -25 0 -12 -11 -23 -27
-29 l-28 -10 27 -10 c36 -15 40 -25 21 -51 -12 -18 -22 -22 -44 -17 -16 3 -29
1 -29 -4 0 -16 77 -11 94 6 18 17 21 50 7 59 -5 3 -7 21 -4 41 7 42 -5 54 -57
53 -19 0 -30 -2 -25 -4z"/>
<path d="M7762 3468 c-15 -15 -16 -44 -1 -53 7 -5 4 -14 -7 -26 -14 -15 -16
-26 -8 -47 8 -22 16 -28 47 -30 21 -2 45 2 53 9 16 13 19 65 4 74 -6 4 -5 13
3 25 9 15 9 25 1 38 -13 21 -74 28 -92 10z m66 -26 c4 -28 -24 -40 -45 -19
-14 13 -14 19 -3 32 18 22 44 15 48 -13z m8 -74 c7 -22 -19 -52 -40 -45 -17 6
-29 34 -23 51 10 24 54 21 63 -6z"/>
<path d="M12130 3443 c-4 -146 0 -197 15 -206 9 -5 20 -20 26 -34 5 -13 15
-23 22 -20 14 5 11 140 -4 145 -5 2 -9 21 -9 42 0 21 -5 42 -11 45 -5 4 -8 12
-6 18 5 15 -11 47 -23 47 -5 0 -9 -17 -10 -37z"/>
<path d="M10702 3458 c-7 -7 -12 -22 -12 -35 0 -20 5 -23 43 -23 55 0 74 12
50 31 -18 14 -60 39 -66 39 -2 0 -8 -5 -15 -12z"/>
<path d="M15875 3445 c6 -2 22 -6 38 -9 18 -4 27 -13 27 -25 0 -12 -11 -23
-27 -29 l-28 -10 27 -10 c36 -15 40 -25 21 -51 -12 -18 -22 -22 -44 -17 -16 3
-29 1 -29 -4 0 -16 77 -11 94 6 18 17 21 50 7 59 -5 3 -7 21 -4 41 7 42 -5 54
-57 53 -19 0 -30 -2 -25 -4z"/>
<path d="M16092 3438 c-15 -15 -16 -44 -1 -53 7 -5 4 -14 -7 -26 -14 -15 -16
-26 -8 -47 8 -22 16 -28 47 -30 21 -2 45 2 53 9 16 13 19 65 4 74 -6 4 -5 13
3 25 9 15 9 25 1 38 -13 21 -74 28 -92 10z m66 -26 c4 -28 -24 -40 -45 -19
-14 13 -14 19 -3 32 18 22 44 15 48 -13z m8 -74 c7 -22 -19 -52 -40 -45 -17 6
-29 34 -23 51 10 24 54 21 63 -6z"/>
<path d="M848 3433 c-10 -2 -18 -13 -18 -23 0 -10 -7 -20 -15 -23 -13 -6 -25
-29 -66 -124 -8 -18 -17 -33 -21 -33 -5 0 -8 -9 -8 -20 0 -11 -4 -20 -10 -20
-5 0 -10 -4 -10 -10 0 -18 18 -11 44 18 93 100 146 181 146 222 0 20 -8 22
-42 13z"/>
<path d="M1552 3352 c-59 -54 -65 -80 -24 -103 22 -13 35 -14 66 -5 21 6 44
20 50 31 6 11 17 24 24 28 22 14 14 57 -13 67 -14 5 -25 14 -25 20 0 22 -28 8
-78 -38z"/>
<path d="M10632 3355 c-62 -23 -76 -31 -117 -67 -11 -10 -29 -25 -40 -32 -17
-12 -18 -18 -8 -34 10 -16 7 -26 -13 -56 -14 -21 -33 -36 -44 -36 -26 0 -61
-36 -54 -55 4 -8 15 -15 25 -15 10 0 19 -4 19 -9 0 -5 14 -11 32 -15 36 -7 48
4 48 47 0 19 5 27 18 27 14 0 21 -12 29 -45 6 -24 8 -47 5 -50 -3 -3 -21 -5
-40 -5 -33 0 -34 -1 -28 -32 21 -122 19 -132 -31 -143 -26 -5 -33 -3 -33 9 0
19 -16 21 -23 3 -7 -20 3 -67 25 -114 15 -33 25 -43 43 -43 18 0 25 7 30 30 8
35 14 36 57 10 53 -32 59 -28 53 35 -3 37 0 67 9 90 18 41 22 42 46 13 23 -28
37 -17 22 17 -7 15 -8 27 -2 30 6 4 10 15 10 26 0 12 10 23 26 29 14 6 28 19
31 30 3 11 9 20 13 20 10 0 31 94 30 136 0 16 2 56 4 89 9 104 8 109 -10 122
-25 18 -59 15 -132 -12z m-77 -385 c3 -5 1 -10 -4 -10 -6 0 -11 5 -11 10 0 6
2 10 4 10 3 0 8 -4 11 -10z"/>
<path d="M7670 3325 c0 -8 7 -15 15 -15 8 0 15 4 15 9 0 5 -7 11 -15 15 -9 3
-15 0 -15 -9z"/>
<path d="M10842 3326 c7 -8 15 -12 17 -11 5 6 -10 25 -20 25 -5 0 -4 -6 3 -14z"/>
<path d="M11300 3300 c0 -5 5 -10 10 -10 6 0 10 5 10 10 0 6 -4 10 -10 10 -5
0 -10 -4 -10 -10z"/>
<path d="M16000 3295 c0 -8 7 -15 15 -15 8 0 15 4 15 9 0 5 -7 11 -15 15 -9 3
-15 0 -15 -9z"/>
<path d="M5451 3256 c-16 -19 -17 -72 -3 -114 6 -18 7 -30 1 -27 -21 14 -7
-47 18 -75 25 -28 27 -29 45 -13 12 10 18 30 18 56 0 52 -28 147 -49 170 -16
16 -19 16 -30 3z"/>
<path d="M9694 3259 c-17 -21 -26 -57 -16 -63 12 -7 35 37 30 59 -2 15 -5 16
-14 4z"/>
<path d="M4109 3238 c-1 -7 -1 -18 0 -25 1 -6 -3 -14 -9 -18 -5 -3 -10 -20
-10 -36 0 -27 3 -30 23 -24 25 8 47 32 47 52 0 7 7 13 15 13 11 0 14 -10 10
-47 -5 -47 -4 -47 6 -13 6 19 13 53 15 75 4 35 3 37 -8 18 -14 -28 -34 -30
-41 -3 -6 22 -46 28 -48 8z"/>
<path d="M10960 3211 c-8 -6 -18 -7 -22 -5 -16 10 -48 -7 -48 -25 0 -10 -9
-30 -20 -44 -26 -33 -26 -34 13 -42 17 -4 37 -11 43 -16 16 -13 5 -68 -16 -79
-23 -12 -44 -65 -35 -87 4 -10 9 -35 12 -55 8 -60 38 -151 52 -156 7 -2 11 2
10 9 -2 8 0 30 4 50 7 32 10 35 36 31 26 -4 29 -1 40 45 7 26 15 54 17 61 2 6
18 12 35 12 l31 0 -7 58 c-4 31 -11 64 -15 72 -4 8 -11 35 -15 60 -7 42 -35
95 -60 112 -14 10 -37 10 -55 -1z"/>
<path d="M12683 3208 c-6 -8 -7 -21 -2 -33 4 -11 8 -32 8 -47 1 -20 5 -26 16
-22 16 7 21 44 6 44 -5 0 -7 9 -4 19 3 11 1 27 -4 36 -8 13 -11 14 -20 3z"/>
<path d="M9900 3195 c-17 -21 -24 -89 -11 -112 7 -14 18 -19 33 -16 27 5 75
-36 84 -71 3 -12 4 -42 2 -67 -2 -35 -7 -44 -20 -43 -18 2 -19 -3 -22 -128 -1
-52 -12 -56 -47 -20 -17 18 -37 32 -44 32 -7 0 -16 8 -19 18 -11 30 -33 62
-51 76 -17 12 -17 18 -5 62 7 27 19 61 27 76 7 15 13 43 13 63 0 30 -8 44 -45
81 -25 24 -49 44 -54 44 -21 0 -78 -50 -104 -92 -34 -55 -43 -108 -27 -166 10
-39 14 -43 38 -40 23 3 30 -3 50 -45 21 -45 24 -48 52 -42 25 6 30 3 36 -19 3
-13 3 -34 -1 -45 -5 -18 -13 -20 -62 -18 -33 2 -58 8 -61 15 -6 20 -32 13 -32
-9 0 -30 29 -137 43 -161 7 -11 24 -32 38 -47 14 -14 28 -33 31 -41 4 -12 9
-13 31 -3 24 11 25 15 20 67 -5 47 -3 56 10 56 34 0 85 -33 101 -66 9 -19 26
-39 38 -44 13 -5 31 -16 41 -24 17 -13 17 -16 3 -39 -13 -19 -14 -30 -6 -52
15 -39 -2 -53 -29 -24 -11 13 -21 26 -21 29 0 4 -10 11 -22 17 -21 9 -24 7
-35 -31 -8 -27 -9 -42 -2 -47 30 -18 40 -64 34 -147 -8 -92 -4 -102 52 -129
28 -13 33 -20 28 -37 -3 -12 -7 -27 -8 -35 -2 -17 42 -43 57 -34 5 4 23 7 40
9 17 1 32 7 34 12 2 7 14 7 35 1 61 -18 140 40 94 68 -37 22 -77 115 -77 180
0 23 -5 54 -10 69 -15 39 -3 94 21 94 25 0 24 28 -1 60 -11 14 -20 30 -20 36
0 16 -24 24 -66 24 l-34 0 -1 63 c-2 75 -1 73 -22 119 -20 43 -22 68 -6 68 8
0 9 13 5 40 -8 51 13 64 49 30 l23 -22 18 33 c26 49 27 68 8 131 -13 45 -23
59 -45 69 -18 7 -29 19 -29 30 0 11 -4 19 -9 19 -5 0 -14 12 -19 28 -12 33
-81 112 -97 112 -7 0 -18 -7 -25 -15z m187 -997 c13 -12 23 -29 23 -38 0 -23
-37 -60 -60 -60 -18 0 -20 7 -19 60 2 67 15 77 56 38z"/>
<path d="M12957 3203 c-4 -3 -7 -25 -8 -47 -1 -23 -4 -52 -8 -66 -4 -16 -2
-34 8 -50 19 -34 106 -100 131 -100 22 0 59 48 44 58 -5 4 -25 26 -45 48 -28
31 -39 54 -44 92 -6 45 -10 52 -37 61 -37 13 -33 13 -41 4z"/>
<path d="M4535 3193 c-11 -2 -29 -6 -41 -8 -12 -3 -28 -21 -39 -44 -16 -37
-16 -55 1 -113 3 -11 -8 -29 -31 -49 -19 -18 -35 -38 -35 -46 0 -7 -22 -36
-50 -64 -52 -53 -60 -69 -35 -69 10 0 15 -10 15 -33 0 -25 8 -41 33 -63 33
-30 87 -44 87 -24 0 7 9 24 19 39 11 15 22 45 24 67 8 66 17 80 61 103 24 11
48 21 54 21 26 0 63 26 82 57 22 37 46 43 55 13 9 -29 25 -24 25 8 0 34 -39
81 -77 91 -20 5 -28 14 -30 32 0 13 -1 31 -2 40 -1 24 -76 51 -116 42z"/>
<path d="M10162 3158 c7 -13 11 -26 10 -29 0 -4 7 -9 18 -12 18 -5 18 -3 2 29
-8 19 -22 34 -29 34 -11 0 -11 -4 -1 -22z"/>
<path d="M10210 3092 c0 -14 39 -32 46 -21 4 6 0 15 -7 20 -17 11 -39 12 -39
1z"/>
<path d="M2421 3057 c-26 -13 -51 -36 -62 -57 -11 -19 -25 -43 -32 -53 -10
-16 -8 -22 18 -43 19 -15 43 -24 64 -24 19 0 42 -7 52 -15 14 -13 19 -14 30
-2 22 21 50 28 66 16 17 -15 29 -4 38 34 6 22 4 27 -11 27 -28 0 -74 50 -74
80 0 23 -26 60 -41 60 -2 0 -24 -10 -48 -23z"/>
<path d="M4209 3034 c-12 -14 -11 -16 5 -13 11 2 21 10 24 17 5 17 -13 15 -29
-4z"/>
<path d="M1490 3030 c0 -5 5 -10 10 -10 6 0 10 5 10 10 0 6 -4 10 -10 10 -5 0
-10 -4 -10 -10z"/>
<path d="M3888 3024 c-30 -16 -71 -71 -58 -79 12 -7 48 3 67 19 38 31 73 66
66 67 -4 0 -18 2 -30 3 -11 1 -32 -3 -45 -10z"/>
<path d="M630 3007 c0 -15 -4 -27 -10 -27 -13 0 -13 -37 -1 -45 11 -6 27 82
17 92 -3 4 -6 -6 -6 -20z"/>
<path d="M4263 3020 c-16 -7 -23 -18 -23 -37 0 -39 13 -55 41 -51 26 3 35 31
25 74 -7 26 -10 27 -43 14z"/>
<path d="M4128 2986 c-7 -8 -22 -24 -32 -37 -11 -13 -32 -39 -48 -57 -25 -29
-39 -82 -21 -82 9 0 71 68 99 110 13 19 31 45 40 58 16 21 15 22 -4 22 -11 0
-27 -6 -34 -14z"/>
<path d="M14565 2960 c4 -25 9 -54 11 -65 2 -11 7 -35 10 -52 4 -18 10 -30 15
-27 12 7 11 71 -1 79 -5 3 -10 17 -10 29 0 13 -7 37 -16 52 l-16 29 7 -45z"/>
<path d="M12643 2935 c-13 -42 -7 -108 13 -147 8 -16 15 -52 16 -81 0 -50 7
-66 61 -128 7 -8 12 -20 10 -25 -9 -28 83 -37 134 -12 11 6 27 8 34 6 22 -7
83 19 102 44 18 24 17 25 -10 77 -61 115 -71 126 -148 161 -37 17 -71 42 -90
65 -16 21 -32 41 -35 44 -9 11 -50 31 -63 31 -8 0 -19 -16 -24 -35z"/>
<path d="M11320 2931 c0 -6 4 -12 9 -15 4 -3 11 -23 14 -44 6 -33 12 -41 48
-56 28 -13 44 -15 51 -8 16 16 -22 86 -59 111 -34 22 -63 28 -63 12z"/>
<path d="M12242 2920 c0 -14 2 -19 5 -12 2 6 2 18 0 25 -3 6 -5 1 -5 -13z"/>
<path d="M11166 2845 c4 -8 10 -15 15 -15 4 0 6 7 3 15 -4 8 -10 15 -15 15 -4
0 -6 -7 -3 -15z"/>
<path d="M4675 2797 c-16 -12 -47 -39 -68 -60 -29 -31 -35 -42 -26 -53 14 -17
34 -7 77 36 17 16 35 30 40 30 9 0 22 32 22 58 0 17 -10 15 -45 -11z"/>
<path d="M4092 2728 c-33 -34 -38 -44 -27 -55 18 -17 22 -17 56 8 22 16 29 28
29 55 0 19 -4 34 -9 34 -5 0 -27 -19 -49 -42z"/>
<path d="M11181 2737 c-11 -14 -11 -23 3 -57 13 -33 14 -44 4 -60 -17 -26 -20
-25 -58 10 -18 17 -33 29 -34 28 -16 -30 -26 -58 -28 -77 -5 -37 -24 -36 -64
3 -21 20 -39 36 -41 36 -6 0 9 -54 23 -80 7 -14 25 -39 41 -56 15 -17 37 -46
47 -65 11 -19 32 -52 48 -73 27 -38 28 -38 28 -13 0 33 28 36 55 7 10 -11 26
-20 34 -19 9 1 19 0 24 -1 17 -6 28 -8 51 -9 13 0 47 -19 75 -41 69 -54 84
-54 56 0 -18 34 -7 40 19 11 10 -11 30 -21 44 -23 18 -2 32 -15 47 -43 43 -81
40 -78 63 -64 18 11 25 9 59 -13 47 -31 103 -88 103 -104 0 -9 -11 -8 -42 5
-78 34 -97 35 -104 6 -8 -32 -29 -32 -58 0 -23 24 -46 33 -46 17 0 -4 4 -12
10 -18 5 -5 11 -19 13 -31 5 -32 12 -36 37 -21 18 11 22 11 31 -5 18 -31 100
-120 143 -154 23 -17 55 -43 72 -58 18 -14 38 -23 46 -20 8 3 28 -1 44 -10 35
-18 114 -21 97 -4 -9 9 -9 16 0 31 14 21 1 34 -45 44 -32 7 -96 59 -86 70 5 4
17 -1 28 -11 18 -16 20 -16 20 -2 0 16 -21 43 -82 108 -14 16 -24 29 -22 29
11 0 49 -24 68 -42 32 -30 92 -68 191 -119 84 -44 90 -49 93 -81 5 -47 63 -95
100 -84 22 7 48 -10 173 -116 57 -49 107 -88 112 -88 5 0 -13 26 -40 58 -27
31 -68 84 -93 117 -84 114 -196 198 -409 307 -130 66 -162 86 -191 123 -19 25
-38 57 -42 73 -7 25 -37 61 -104 124 -16 14 -43 28 -61 31 -42 7 -53 14 -53
37 0 11 -18 30 -42 47 -35 23 -47 26 -65 18 -13 -5 -23 -15 -23 -22 0 -24 -17
-22 -51 6 l-34 29 26 12 27 12 -21 24 c-11 13 -27 24 -34 24 -37 0 -77 38 -93
90 -16 50 -32 82 -51 105 -9 11 -19 29 -21 39 -3 18 -4 18 -17 3z m44 -221
c14 -24 32 -50 40 -56 31 -26 13 -30 -19 -5 -34 26 -69 82 -60 97 8 13 12 10
39 -36z m435 -298 c0 -6 -7 -5 -15 2 -8 7 -15 17 -15 22 0 6 7 5 15 -2 8 -7
15 -17 15 -22z"/>
<path d="M11473 2738 c-37 -18 -39 -47 -7 -76 54 -47 115 -63 156 -41 l20 11
-21 19 c-12 11 -21 29 -21 39 0 38 -84 70 -127 48z"/>
<path d="M10185 2730 c-3 -5 -1 -27 4 -47 6 -21 11 -52 11 -70 0 -75 64 -183
107 -183 16 0 -4 122 -31 195 -33 87 -73 134 -91 105z"/>
<path d="M11300 2721 c0 -25 25 -61 41 -61 16 0 17 4 8 23 -11 25 -49 54 -49
38z"/>
<path d="M3831 2697 c-24 -12 -51 -32 -59 -44 -13 -21 -13 -23 6 -23 32 0 142
59 142 76 0 20 -37 17 -89 -9z"/>
<path d="M2234 2692 c-6 -4 -14 -17 -18 -28 -6 -19 -2 -22 29 -26 19 -2 35 -1
35 3 0 4 9 11 20 14 31 10 26 38 -5 33 -14 -3 -28 -1 -31 3 -6 11 -15 11 -30
1z"/>
<path d="M3963 2681 c-28 -23 -30 -51 -4 -51 29 0 63 32 56 53 -9 22 -24 21
-52 -2z"/>
<path d="M4153 2624 c-23 -14 -44 -33 -47 -42 -8 -22 -125 -78 -153 -73 -7 1
-13 -3 -13 -8 0 -5 -10 -13 -22 -17 -13 -4 -43 -23 -68 -44 -33 -27 -58 -39
-94 -44 -27 -3 -61 -14 -74 -24 -14 -9 -39 -25 -56 -34 -28 -15 -29 -17 -8
-18 15 0 22 -6 22 -20 0 -22 14 -24 73 -11 20 5 37 6 37 2 0 -16 -33 -51 -48
-51 -26 0 -74 -33 -130 -89 -28 -28 -58 -51 -67 -51 -18 0 -20 16 -2 23 7 4 6
6 -4 6 -18 1 -42 -22 -33 -32 3 -3 -9 -13 -28 -22 -30 -16 -67 -51 -68 -66 0
-15 44 -16 77 -3 77 32 41 -10 -84 -99 -40 -29 -73 -58 -73 -64 0 -19 13 -16
51 10 59 40 236 127 259 127 32 0 75 26 117 69 21 22 60 51 86 65 74 40 84 34
42 -28 -46 -68 0 -70 63 -4 20 21 71 58 112 81 67 37 72 42 50 47 -17 4 -21 8
-12 14 10 6 7 13 -10 31 -28 29 -56 20 -110 -35 -47 -47 -77 -46 -52 2 19 37
13 45 -18 24 -35 -25 -42 -19 -18 15 27 36 20 48 -14 25 -14 -9 -33 -16 -41
-16 -20 0 64 111 112 147 40 31 128 39 128 11 0 -9 3 -19 6 -23 4 -3 1 -22 -6
-41 -9 -27 -9 -42 -1 -60 13 -28 22 -29 77 -8 35 14 42 15 50 3 8 -12 12 -10
24 6 28 37 70 77 108 101 35 23 48 44 28 44 -5 0 -7 18 -4 40 6 39 5 40 -25
40 -17 0 -38 -7 -46 -16 -18 -18 -21 -3 -6 27 9 15 7 21 -5 26 -9 3 -13 9 -8
12 17 12 53 71 44 71 -5 0 -21 -4 -35 -10 -17 -6 -26 -6 -26 0 0 14 -9 11 -57
-16z m-3 -93 c0 -6 -5 -13 -10 -16 -19 -12 2 -26 34 -23 17 2 32 -1 34 -7 1
-5 -8 -11 -20 -11 -12 -1 -27 -9 -33 -18 -7 -9 -17 -16 -22 -16 -6 0 -16 -7
-23 -15 -14 -17 -45 -21 -35 -5 4 6 2 17 -4 24 -15 17 6 59 39 80 29 18 40 20
40 7z"/>
<path d="M11324 2634 c3 -8 6 -18 6 -20 0 -2 5 -4 10 -4 16 0 11 27 -6 34 -12
5 -15 2 -10 -10z"/>
<path d="M11370 2607 c1 -14 49 -71 56 -65 2 3 -3 19 -11 35 -16 32 -45 52
-45 30z"/>
<path d="M2039 2582 c-51 -33 -73 -57 -65 -71 4 -5 -1 -16 -9 -24 -8 -9 -15
-20 -15 -26 0 -11 -10 -24 -64 -87 -39 -47 -30 -62 41 -66 72 -4 113 8 155 42
29 24 31 32 32 88 1 52 5 65 29 90 69 72 -10 114 -104 54z"/>
<path d="M7530 2565 c0 -12 4 -13 25 -3 19 8 28 8 40 -2 25 -21 18 -42 -31
-91 -26 -26 -43 -52 -40 -58 9 -14 93 -15 101 -1 4 6 -6 10 -24 10 -43 0 -45
12 -6 50 36 35 46 75 23 98 -18 18 -88 16 -88 -3z"/>
<path d="M7770 2545 c0 -32 3 -35 28 -35 50 0 69 -42 33 -74 -13 -12 -27 -15
-45 -10 -16 4 -26 2 -26 -5 0 -6 17 -11 40 -11 41 0 80 26 80 54 0 25 -41 66
-66 66 -40 0 -27 34 16 41 33 6 32 6 -12 8 l-48 1 0 -35z"/>
<path d="M3612 2549 c-31 -12 -52 -34 -52 -53 0 -9 -17 -24 -38 -35 -51 -26
-70 -49 -48 -57 20 -8 68 4 77 18 4 7 13 6 28 -1 16 -9 27 -8 48 2 16 8 40 17
55 21 15 3 34 13 43 22 27 28 -3 35 -57 14 -39 -15 -48 -16 -48 -4 0 8 5 14
11 14 6 0 22 8 35 19 22 18 23 19 5 35 -20 18 -26 19 -59 5z"/>
<path d="M9525 2546 c-13 -10 -19 -31 -23 -88 -3 -50 -1 -78 7 -82 6 -4 11
-27 11 -52 0 -53 22 -60 55 -17 28 35 42 24 50 -40 4 -28 11 -56 15 -62 4 -5
10 -26 14 -45 8 -44 41 -79 67 -73 25 7 52 58 44 84 -4 10 -20 26 -36 34 -31
16 -45 51 -34 84 7 23 -18 151 -42 218 -17 45 -44 63 -68 43 -11 -9 -19 -10
-28 -1 -10 8 -18 7 -32 -3z"/>
<path d="M13072 2525 c-86 -36 -100 -69 -52 -122 21 -24 39 -33 60 -33 17 0
45 -6 63 -13 82 -35 159 -28 170 13 3 11 -7 38 -23 62 -41 61 -51 71 -85 87
-60 27 -79 28 -133 6z"/>
<path d="M15860 2535 c0 -12 4 -13 25 -3 19 8 28 8 40 -2 25 -21 18 -42 -31
-91 -26 -26 -43 -52 -40 -58 9 -14 93 -15 101 -1 4 6 -6 10 -24 10 -43 0 -45
12 -6 50 36 35 46 75 23 98 -18 18 -88 16 -88 -3z"/>
<path d="M16100 2515 c0 -32 3 -35 28 -35 50 0 69 -42 33 -74 -13 -12 -27 -15
-45 -10 -16 4 -26 2 -26 -5 0 -6 17 -11 40 -11 41 0 80 26 80 54 0 25 -41 66
-66 66 -40 0 -27 34 16 41 33 6 32 6 -12 8 l-48 1 0 -35z"/>
<path d="M804 2486 c-8 -33 -1 -79 12 -83 6 -2 21 15 33 38 17 32 19 44 10 55
-18 22 -48 17 -55 -10z"/>
<path d="M2573 2499 c-37 -11 -38 -11 -20 -41 22 -39 31 -44 79 -40 59 5 74
21 56 59 -10 22 -21 28 -48 30 -19 1 -50 -3 -67 -8z"/>
<path d="M13345 2498 c-8 -20 12 -61 28 -55 19 6 18 23 -2 48 -17 21 -20 22
-26 7z"/>
<path d="M718 2493 c-8 -17 0 -110 12 -153 11 -41 10 -50 -11 -97 -12 -29 -29
-53 -36 -53 -19 0 -16 -19 12 -74 14 -27 25 -55 25 -61 0 -6 8 -20 18 -31 9
-11 22 -28 27 -38 6 -10 29 -29 53 -43 l42 -25 -10 28 c-6 16 -14 38 -19 49
-30 65 -58 150 -54 161 2 7 27 -31 55 -84 27 -54 62 -113 77 -132 15 -19 40
-56 56 -82 17 -27 35 -48 41 -48 6 0 21 -11 34 -25 25 -27 119 -84 103 -62
-14 19 -34 69 -26 64 51 -26 141 -84 153 -97 8 -9 39 -33 67 -53 29 -19 67
-49 84 -66 17 -17 41 -31 54 -31 13 0 26 -4 30 -9 10 -17 48 -7 72 17 l24 24
-36 43 c-19 24 -38 59 -41 77 -4 18 -18 51 -33 72 -14 21 -26 46 -26 54 0 25
-32 39 -55 24 -11 -6 -31 -12 -45 -12 l-25 0 20 -35 c25 -45 25 -60 0 -85 -26
-26 -36 -25 -65 5 -36 35 -36 101 0 115 14 5 25 13 25 17 0 5 -29 40 -65 78
-36 39 -82 95 -103 125 -21 30 -58 84 -83 120 -25 36 -51 79 -58 96 -16 40
-93 114 -119 114 -24 0 -32 -19 -31 -73 1 -51 26 -97 63 -115 30 -15 46 -47
46 -96 0 -52 29 -148 55 -182 26 -34 33 -68 14 -62 -21 7 -141 235 -155 294
-11 50 -64 154 -78 154 -8 0 -17 -10 -21 -22 -8 -23 -8 -23 -12 2 -3 14 -9 30
-15 37 -6 7 -5 33 3 72 10 46 10 66 1 85 -11 25 -37 35 -44 19z m376 -608 c3
-8 2 -15 -3 -15 -5 0 -14 7 -21 15 -10 12 -10 15 3 15 8 0 17 -7 21 -15z"/>
<path d="M12043 2483 c-18 -2 -33 -10 -33 -17 0 -17 67 -38 110 -34 30 3 35 7
35 28 0 22 -4 25 -40 26 -22 1 -55 -1 -72 -3z"/>
<path d="M2853 2473 c-32 -6 -29 -34 7 -58 31 -20 38 -39 20 -50 -5 -3 -10
-15 -10 -25 0 -41 90 -38 141 4 32 27 27 35 -25 45 -25 6 -32 12 -34 36 -5 48
-32 61 -99 48z"/>
<path d="M581 2418 c-1 -27 4 -48 9 -48 12 0 12 34 0 70 -7 20 -8 16 -9 -22z"/>
<path d="M10787 2444 c-12 -13 -8 -61 8 -74 17 -15 35 -5 35 19 0 23 -33 65
-43 55z"/>
<path d="M12470 2434 c0 -7 -8 -17 -17 -23 -14 -7 -15 -13 -6 -21 8 -9 24 -8
67 4 31 9 56 21 56 26 0 6 -3 10 -7 10 -5 1 -27 5 -50 9 -33 6 -43 5 -43 -5z"/>
<path d="M7690 2426 c0 -9 5 -16 10 -16 6 0 10 4 10 9 0 6 -4 13 -10 16 -5 3
-10 -1 -10 -9z"/>
<path d="M16020 2396 c0 -9 5 -16 10 -16 6 0 10 4 10 9 0 6 -4 13 -10 16 -5 3
-10 -1 -10 -9z"/>
<path d="M3205 2390 c-34 -14 -82 -65 -87 -93 -7 -35 12 -46 73 -43 71 3 112
46 44 46 -22 0 -35 5 -35 13 0 7 16 19 35 27 19 8 35 19 35 25 0 18 -42 33
-65 25z"/>
<path d="M2673 2360 c-48 -44 -34 -90 26 -90 39 0 109 24 128 43 16 16 16 17
-7 17 -36 0 -90 22 -90 37 0 20 -33 16 -57 -7z"/>
<path d="M3393 2327 c-19 -13 -31 -28 -28 -36 3 -7 0 -20 -7 -29 -11 -14 -9
-15 22 -8 19 3 37 11 38 16 2 6 8 10 13 10 5 0 20 10 33 21 52 45 -10 67 -71
26z"/>
<path d="M10486 2341 c-9 -14 4 -41 20 -41 8 0 14 6 14 14 0 18 -26 40 -34 27z"/>
<path d="M11850 2340 c-8 -5 -5 -12 11 -24 36 -25 83 -18 56 8 -16 17 -52 25
-67 16z"/>
<path d="M12348 2327 c-38 -11 -49 -29 -25 -44 17 -11 135 -44 178 -50 25 -3
39 0 49 12 16 19 10 26 -55 58 -63 31 -100 37 -147 24z"/>
<path d="M4540 2275 c-36 -24 -73 -45 -83 -45 -10 0 -37 -9 -59 -20 -23 -11
-43 -18 -46 -15 -11 11 -67 -72 -75 -113 -6 -28 -3 -34 17 -42 13 -4 26 -16
29 -24 16 -40 67 -2 67 49 0 33 1 34 55 40 31 4 59 5 62 2 3 -4 -4 -22 -15
-42 -12 -19 -19 -35 -15 -35 3 0 26 16 49 36 47 38 59 70 24 61 -11 -3 -20 -4
-20 -3 0 1 17 21 39 43 45 49 84 120 77 139 -9 24 -39 15 -106 -31z"/>
<path d="M607 2275 c4 -22 9 -42 13 -45 4 -3 10 -14 13 -25 4 -16 5 -15 5 5 0
14 -8 43 -18 65 l-18 40 5 -40z"/>
<path d="M10320 2285 c0 -8 3 -15 8 -15 4 0 20 -18 36 -40 17 -22 36 -40 43
-40 19 0 16 14 -8 36 -12 10 -27 31 -35 46 -15 30 -44 38 -44 13z"/>
<path d="M10650 2279 c0 -11 11 -40 25 -65 14 -25 25 -54 25 -65 0 -23 76
-109 97 -109 17 0 65 -48 90 -90 10 -17 41 -44 68 -60 28 -16 71 -46 96 -67
25 -21 56 -46 70 -55 24 -17 24 -17 2 -17 -32 -1 -38 -19 -14 -45 12 -12 21
-27 21 -33 0 -14 29 -21 59 -14 21 6 22 8 7 20 -24 20 -20 31 12 31 15 1 38 7
52 15 14 8 34 15 45 15 19 1 72 37 64 43 -2 2 -28 11 -57 20 -44 14 -61 15
-97 5 -64 -17 -113 8 -181 93 -30 37 -58 71 -64 74 -5 3 -10 13 -10 21 0 13
10 14 55 9 30 -4 55 -5 55 -2 0 4 -11 17 -24 30 -13 13 -29 33 -35 45 -20 38
-111 89 -170 95 -34 4 -58 12 -63 22 -5 8 -15 15 -22 15 -7 0 -27 20 -45 45
-34 48 -61 58 -61 24z"/>
<path d="M13432 2230 c-30 -25 -84 -35 -119 -23 -16 6 -45 8 -66 5 l-38 -4 25
-27 c24 -25 25 -31 15 -59 -6 -18 -16 -32 -22 -32 -7 0 -24 -7 -39 -14 -32
-17 -143 -15 -177 3 -12 7 -25 9 -30 6 -15 -8 0 -45 24 -61 13 -8 25 -24 28
-34 3 -11 14 -20 24 -20 11 0 23 -3 27 -7 12 -13 154 -29 176 -21 12 4 20 16
20 31 0 29 39 52 104 62 33 4 56 15 71 31 22 24 26 25 67 13 24 -6 50 -12 58
-12 8 0 21 -4 27 -9 24 -19 42 -1 38 39 -2 20 -8 39 -14 41 -6 2 -11 9 -11 16
0 14 -56 69 -87 85 -32 16 -75 13 -101 -9z"/>
<path d="M4754 2222 c-12 -10 -28 -32 -37 -48 -13 -25 -13 -33 -1 -54 7 -14
13 -21 14 -16 0 6 6 3 13 -6 26 -33 57 -29 98 11 43 42 48 64 20 100 -14 18
-25 23 -45 19 -14 -3 -26 -1 -26 3 0 14 -13 10 -36 -9z"/>
<path d="M10200 2221 c0 -22 62 -150 83 -172 14 -14 42 -51 61 -83 38 -58 52
-67 63 -40 3 9 -5 26 -21 43 -14 15 -26 30 -26 34 0 4 -16 30 -35 58 -19 28
-34 54 -32 58 2 3 9 19 17 34 13 25 12 30 -8 49 -20 21 -102 36 -102 19z"/>
<path d="M10517 2222 c-16 -2 -31 -10 -33 -17 -10 -24 45 -84 87 -95 23 -7 46
-22 60 -41 11 -16 38 -41 58 -54 21 -12 66 -48 102 -79 61 -53 125 -93 135
-83 11 11 -21 55 -53 72 -19 11 -60 45 -92 77 -31 32 -79 74 -107 93 -32 21
-57 47 -68 72 -19 42 -47 60 -89 55z"/>
<path d="M12760 2205 c-6 -8 -9 -23 -5 -34 12 -39 127 -55 146 -20 7 14 0 22
-35 43 -50 29 -88 33 -106 11z"/>
<path d="M1660 2194 c-44 -8 -80 -26 -80 -40 0 -7 -15 -25 -34 -39 -32 -25
-34 -28 -24 -58 6 -18 15 -38 20 -44 15 -19 76 -27 93 -13 10 9 34 10 80 5 63
-6 65 -6 76 19 7 14 16 26 21 26 4 0 8 14 8 30 0 17 4 30 10 30 5 0 16 13 24
29 l15 28 -67 13 c-94 17 -113 19 -142 14z"/>
<path d="M14210 2192 c0 -5 -9 -12 -19 -15 -16 -4 -65 -61 -90 -105 -4 -7 -16
-15 -27 -16 -10 -2 -19 -9 -19 -16 0 -7 -16 -29 -36 -49 -20 -20 -38 -42 -40
-50 -3 -7 -28 -17 -59 -22 -50 -8 -60 -14 -113 -71 -59 -64 -74 -95 -63 -124
5 -13 17 -16 63 -12 55 5 60 8 109 62 29 32 62 77 73 101 16 34 27 45 53 50
59 13 164 106 174 154 3 14 10 35 16 47 12 26 7 66 -9 72 -7 2 -13 -1 -13 -6z"/>
<path d="M5425 2177 c-11 -7 -21 -13 -23 -14 -2 0 8 -19 22 -42 14 -22 26 -47
26 -56 0 -24 37 -55 57 -48 10 4 20 9 23 12 10 12 80 32 90 26 5 -3 10 -1 10
5 0 6 7 18 15 26 19 19 19 44 1 44 -7 0 -19 7 -26 15 -7 8 -27 15 -45 15 -18
0 -49 7 -68 15 -43 18 -55 18 -82 2z"/>
<path d="M11290 2173 c1 -22 43 -71 90 -105 40 -29 90 -44 90 -28 0 19 -52 81
-98 116 -49 37 -82 44 -82 17z"/>
<path d="M1980 2158 c0 -10 -9 -23 -20 -30 -31 -20 -27 -81 6 -107 15 -12 35
-21 46 -21 27 0 77 28 103 58 l22 25 -21 33 c-13 21 -29 33 -43 34 -13 0 -23
4 -23 9 0 5 -16 11 -35 13 -28 3 -35 1 -35 -14z"/>
<path d="M4647 2128 c-20 -36 -19 -39 11 -31 22 5 28 28 14 50 -5 8 -13 1 -25
-19z"/>
<path d="M9358 2138 c-2 -13 1 -38 6 -55 7 -26 12 -30 23 -22 16 14 17 71 1
87 -18 18 -26 15 -30 -10z"/>
<path d="M2551 2130 c-9 -5 -8 -10 3 -20 16 -13 46 -7 46 9 0 12 -35 20 -49
11z"/>
<path d="M5113 2098 c-30 -45 -38 -84 -20 -91 10 -3 13 -14 10 -31 -5 -26 -23
-37 -23 -13 0 7 -8 28 -17 47 l-18 35 -22 -21 c-13 -11 -34 -38 -48 -60 -14
-21 -45 -56 -68 -76 l-41 -37 -1 -86 c-1 -84 -1 -87 27 -107 26 -18 31 -19 46
-5 16 14 20 14 42 -3 28 -22 65 -26 76 -9 3 6 18 9 33 7 17 -2 34 3 46 15 15
13 32 18 65 16 25 -1 57 1 73 5 23 7 27 14 27 43 0 24 7 40 22 52 17 14 23 32
26 82 3 43 11 73 25 91 19 26 20 32 8 66 -7 20 -20 47 -27 59 -12 19 -17 21
-33 11 -15 -9 -25 -9 -46 0 -23 11 -30 9 -52 -8 -30 -23 -53 -26 -53 -6 0 8
-8 23 -17 35 l-18 21 -22 -32z m-76 -246 c15 -16 17 -32 3 -32 -12 0 -30 34
-29 57 0 14 2 15 6 3 4 -8 12 -21 20 -28z"/>
<path d="M5945 2101 c-13 -27 -13 -31 2 -46 9 -10 26 -53 37 -97 17 -65 26
-83 44 -89 19 -7 24 -4 32 17 6 14 10 48 10 76 0 45 -5 56 -47 109 -27 32 -51
59 -55 59 -4 0 -14 -13 -23 -29z"/>
<path d="M12526 2097 c-19 -14 -19 -16 -3 -40 19 -29 49 -37 88 -24 31 10 43
41 23 58 -22 18 -87 22 -108 6z"/>
<path d="M6120 2071 c0 -14 7 -35 15 -45 20 -27 19 -42 -2 -25 -15 13 -16 7
-9 -71 9 -125 26 -242 37 -263 5 -10 7 -32 4 -50 -6 -30 -9 -32 -42 -31 -33 2
-73 -22 -73 -44 0 -4 14 -40 31 -81 28 -67 30 -80 24 -141 -5 -49 -3 -73 7
-89 9 -15 10 -26 2 -38 -14 -25 -6 -53 16 -53 15 0 20 10 25 48 4 26 12 58 18
71 l12 25 3 -32 c2 -18 9 -32 16 -32 17 0 29 -85 16 -110 -6 -10 -10 -31 -10
-45 0 -15 -9 -38 -20 -52 -11 -14 -20 -35 -20 -46 0 -36 -51 -131 -88 -164
-20 -18 -50 -35 -66 -38 -69 -14 -70 -20 -6 -25 62 -6 120 5 120 22 0 4 9 8
20 8 11 0 20 5 20 10 0 6 6 10 13 10 20 0 107 89 107 109 0 11 5 23 10 26 6 3
10 21 10 40 0 19 5 37 10 40 6 3 10 22 10 41 0 19 4 34 10 34 5 0 7 13 4 29
-4 16 -1 32 5 35 6 4 11 33 11 65 0 31 5 62 11 68 7 7 8 58 5 149 -3 76 -7
184 -8 239 -2 55 -6 102 -10 106 -5 3 -14 45 -22 95 -7 49 -14 82 -15 72 -1
-20 -59 -70 -72 -62 -5 3 -9 15 -9 27 0 16 -3 19 -9 8 -11 -17 -31 -6 -31 18
0 12 7 18 17 17 23 -1 29 36 14 86 -13 41 -37 59 -82 62 -25 2 -29 -1 -29 -23z
m160 -542 c0 -44 -18 -78 -33 -62 -9 8 -9 56 0 107 6 36 7 37 20 21 7 -11 13
-40 13 -66z"/>
<path d="M2624 2050 c-27 -11 -40 -40 -17 -40 30 0 83 24 83 37 0 15 -34 16
-66 3z"/>
<path d="M4811 2043 c-11 -7 -28 -28 -39 -47 -17 -29 -18 -37 -7 -46 8 -7 19
-9 25 -5 7 4 9 -1 5 -17 -3 -13 0 -31 9 -43 12 -16 15 -17 16 -4 0 8 11 26 25
39 14 13 25 28 24 34 -4 32 4 47 30 60 16 9 31 21 34 28 6 18 -98 19 -122 1z"/>
<path d="M13906 2033 c-12 -12 -6 -33 9 -33 8 0 15 6 15 14 0 17 -14 28 -24
19z"/>
<path d="M4443 2013 c-7 -3 -13 -12 -13 -21 0 -15 2 -15 17 1 18 18 16 27 -4
20z"/>
<path d="M12846 2007 c-11 -8 -17 -20 -14 -28 3 -8 -1 -20 -9 -27 -7 -7 -13
-20 -13 -28 0 -18 44 -18 59 0 7 8 25 17 39 21 36 7 58 41 41 61 -15 18 -79
18 -103 1z"/>
<path d="M2307 1977 c-3 -8 -2 -19 2 -26 11 -16 43 -2 39 18 -4 20 -34 26 -41
8z"/>
<path d="M12117 1971 c6 -23 28 -43 66 -59 23 -10 27 -9 27 4 0 17 -13 32 -52
57 -35 22 -47 22 -41 -2z"/>
<path d="M3990 1968 c-25 -11 -34 -14 -57 -16 -20 -3 -47 -51 -53 -96 -5 -40
-6 -41 -53 -50 -42 -7 -53 -6 -77 13 -20 14 -44 21 -75 21 -52 0 -75 -16 -75
-52 0 -28 48 -78 73 -78 10 0 17 -8 17 -18 0 -17 8 -18 68 -15 67 3 67 3 37
-13 -30 -16 -55 -41 -55 -55 0 -4 9 -9 21 -12 30 -8 91 23 129 66 38 43 112
85 161 90 48 5 71 23 96 76 24 50 17 76 -14 49 -10 -9 -28 -19 -40 -22 -19 -6
-22 -4 -16 11 3 10 15 30 25 45 26 38 23 44 -26 57 -53 13 -54 13 -86 -1z"/>
<path d="M11130 1954 c0 -25 36 -66 80 -92 35 -20 35 -20 78 -1 41 19 56 39
28 39 -8 0 -16 4 -18 8 -9 21 -73 54 -118 59 -44 5 -50 4 -50 -13z"/>
<path d="M1365 1930 c-4 -6 -2 -17 4 -23 15 -15 25 -2 13 19 -7 12 -11 13 -17
4z"/>
<path d="M10665 1920 c-11 -17 3 -44 30 -57 20 -9 25 -8 25 2 0 21 -47 68 -55
55z"/>
<path d="M13738 1908 c9 -9 15 -9 24 0 9 9 7 12 -12 12 -19 0 -21 -3 -12 -12z"/>
<path d="M13500 1890 c-15 -27 0 -45 46 -53 23 -4 33 -1 43 15 16 26 0 45 -46
54 -26 5 -33 2 -43 -16z"/>
<path d="M1550 1876 c0 -33 38 -46 57 -20 12 16 10 20 -9 31 -35 19 -48 16
-48 -11z"/>
<path d="M5533 1885 c-7 -8 -22 -32 -34 -54 l-21 -40 22 -32 c18 -24 20 -33
10 -42 -10 -9 -14 -9 -17 1 -3 6 -11 12 -20 12 -10 0 -12 6 -8 20 14 43 -71
31 -100 -14 -28 -43 4 -82 45 -56 10 6 21 3 38 -13 18 -17 40 -23 94 -27 38
-3 72 -2 74 2 3 4 11 5 19 2 10 -4 16 3 20 23 3 15 12 42 20 58 13 28 21 91
17 143 -2 24 -30 30 -49 11 -9 -9 -18 -8 -37 5 -31 19 -57 20 -73 1z"/>
<path d="M13332 1888 c6 -18 28 -21 28 -4 0 9 -7 16 -16 16 -9 0 -14 -5 -12
-12z"/>
<path d="M3057 1875 c-25 -13 -102 -71 -134 -102 -7 -6 -23 -20 -36 -30 -32
-26 -99 -121 -93 -131 3 -5 -6 -24 -19 -42 -43 -58 -36 -54 64 35 97 87 261
257 261 270 0 19 -8 19 -43 0z"/>
<path d="M2138 1853 c6 -2 18 -2 25 0 6 3 1 5 -13 5 -14 0 -19 -2 -12 -5z"/>
<path d="M2230 1830 c0 -5 7 -10 15 -10 8 0 15 5 15 10 0 6 -7 10 -15 10 -8 0
-15 -4 -15 -10z"/>
<path d="M10130 1818 c0 -16 45 -69 52 -62 4 3 20 -8 37 -25 21 -21 47 -33 88
-41 32 -6 66 -15 77 -21 26 -15 41 2 27 30 -20 36 -101 91 -136 91 -17 0 -35
3 -38 7 -4 3 -22 8 -39 10 -18 2 -34 8 -36 13 -5 14 -32 12 -32 -2z"/>
<path d="M1640 1768 c0 -4 11 -8 25 -8 14 0 25 4 25 10 0 5 -11 9 -25 8 -14
-1 -25 -6 -25 -10z"/>
<path d="M3054 1757 c-37 -26 -94 -85 -94 -97 0 -23 25 -18 64 12 37 28 86 87
86 103 0 11 -27 3 -56 -18z"/>
<path d="M4307 1773 c-12 -11 -7 -43 6 -43 17 0 37 20 37 37 0 13 -32 18 -43
6z"/>
<path d="M4114 1738 c-16 -12 -43 -35 -61 -52 -36 -34 -45 -63 -15 -50 9 4 53
12 97 18 77 11 81 12 97 46 10 19 18 40 18 45 0 6 -24 11 -54 12 -42 2 -60 -2
-82 -19z"/>
<path d="M10960 1720 c0 -5 5 -10 11 -10 5 0 7 5 4 10 -3 6 -8 10 -11 10 -2 0
-4 -4 -4 -10z"/>
<path d="M1640 1714 c0 -5 18 -26 40 -47 35 -32 40 -35 40 -17 0 11 -8 23 -17
27 -10 3 -28 15 -40 26 -13 11 -23 16 -23 11z"/>
<path d="M9855 1707 c-3 -7 -4 -19 -3 -27 1 -8 -2 -36 -6 -62 -9 -52 6 -121
34 -158 9 -11 34 -27 55 -35 34 -12 43 -11 62 1 36 23 98 18 115 -8 20 -31 31
-78 18 -78 -5 0 -10 -11 -10 -24 0 -16 19 -40 64 -80 86 -76 115 -87 180 -72
57 14 106 42 106 61 0 21 -11 45 -21 45 -38 0 -91 120 -70 158 8 16 3 29 -30
73 -22 30 -60 73 -85 97 -41 38 -49 42 -83 37 -31 -4 -41 -1 -60 19 -24 25
-51 25 -51 0 0 -8 -4 -14 -8 -14 -4 0 -14 -16 -20 -34 -7 -19 -22 -38 -33 -41
-11 -4 -31 -17 -46 -31 -32 -30 -43 -23 -36 22 4 26 1 40 -14 57 -25 27 -39
67 -24 67 6 0 11 6 11 14 0 17 -40 29 -45 13z m292 -185 c-8 -10 -15 -8 -35
11 -28 28 -25 73 6 79 21 4 45 -69 29 -90z"/>
<path d="M1170 1687 c0 -10 8 -17 18 -17 9 0 13 4 7 8 -5 4 -13 11 -17 16 -5
5 -8 2 -8 -7z"/>
<path d="M7560 1670 c0 -5 7 -10 15 -10 12 0 15 -14 15 -70 0 -57 -3 -70 -16
-70 -8 0 -12 -4 -9 -10 8 -12 65 -13 84 -1 11 7 9 10 -8 16 -19 6 -21 14 -21
81 l0 74 -30 0 c-16 0 -30 -4 -30 -10z"/>
<path d="M7770 1669 c0 -7 9 -9 22 -6 26 7 58 -9 58 -29 0 -8 -21 -37 -47 -65
-38 -41 -44 -52 -32 -60 19 -12 80 -11 99 1 11 7 6 10 -21 10 -20 0 -39 3 -42
6 -4 4 9 24 28 46 36 39 44 75 23 96 -15 15 -88 16 -88 1z"/>
<path d="M1107 1654 c-3 -3 17 -28 45 -55 28 -27 53 -47 56 -44 3 3 11 0 19
-6 8 -7 13 -8 13 -1 0 9 -15 24 -93 90 -30 24 -31 25 -40 16z"/>
<path d="M1939 1658 c-8 -35 -4 -74 9 -85 35 -26 142 -9 142 24 0 19 -146 78
-151 61z"/>
<path d="M9358 1615 c-3 -43 5 -65 24 -65 4 0 8 9 8 20 0 12 7 34 15 49 14 27
13 29 -8 35 -34 9 -35 9 -39 -39z"/>
<path d="M15890 1640 c0 -5 7 -10 15 -10 12 0 15 -14 15 -70 0 -57 -3 -70 -16
-70 -8 0 -12 -4 -9 -10 8 -12 65 -13 84 -1 11 7 9 10 -8 16 -19 6 -21 14 -21
81 l0 74 -30 0 c-16 0 -30 -4 -30 -10z"/>
<path d="M16100 1639 c0 -7 9 -9 22 -6 26 7 58 -9 58 -29 0 -8 -21 -37 -47
-65 -38 -41 -44 -52 -32 -60 19 -12 80 -11 99 1 11 7 6 10 -21 10 -20 0 -39 3
-42 6 -4 4 9 24 28 46 36 39 44 75 23 96 -15 15 -88 16 -88 1z"/>
<path d="M10575 1620 c-3 -5 -1 -10 4 -10 6 0 11 5 11 10 0 6 -2 10 -4 10 -3
0 -8 -4 -11 -10z"/>
<path d="M3243 1600 c-23 -9 -32 -30 -13 -30 6 0 10 -7 10 -15 0 -8 8 -15 18
-15 20 0 62 39 62 58 0 14 -45 15 -77 2z"/>
<path d="M11154 1588 c3 -13 6 -36 6 -51 0 -17 7 -30 18 -34 22 -9 47 -34 55
-55 3 -10 22 -24 41 -32 18 -8 38 -20 42 -28 5 -8 32 -27 59 -43 61 -35 101
-65 87 -65 -7 0 -14 -11 -18 -24 -3 -13 -18 -29 -33 -35 -38 -16 -55 -46 -34
-62 13 -11 18 -9 34 13 18 25 22 26 49 14 16 -6 46 -31 65 -53 27 -31 50 -46
97 -61 59 -20 98 -17 98 7 0 23 -68 141 -102 177 -36 38 -38 42 -27 73 9 25 9
42 -2 73 -11 35 -16 39 -39 35 -14 -3 -46 -1 -70 4 -25 6 -65 12 -89 15 -55 5
-70 17 -53 44 6 10 9 26 6 35 -7 17 3 15 63 -16 45 -23 69 -24 77 -3 3 9 6 17
6 19 0 5 -110 55 -121 55 -6 0 -7 -4 -4 -10 3 -5 -6 -15 -20 -22 -22 -10 -32
-8 -73 14 -26 14 -64 28 -86 32 -37 7 -38 6 -32 -16z"/>
<path d="M11905 1600 c3 -5 10 -10 16 -10 5 0 9 5 9 10 0 6 -7 10 -16 10 -8 0
-12 -4 -9 -10z"/>
<path d="M12345 1601 c-6 -10 75 -71 95 -71 19 0 -9 40 -43 60 -36 22 -43 24
-52 11z"/>
<path d="M5320 1592 c-8 -2 -35 -13 -59 -25 -28 -13 -46 -17 -48 -10 -7 21
-40 1 -62 -37 -11 -21 -21 -42 -21 -48 0 -16 53 -30 78 -21 18 7 22 5 22 -12
0 -11 -8 -22 -17 -26 -27 -10 -73 -43 -73 -53 0 -6 11 -12 25 -16 14 -3 25
-13 25 -23 0 -9 5 -22 12 -29 9 -9 7 -16 -7 -32 -10 -11 -24 -19 -30 -16 -16
6 -51 -22 -39 -33 17 -17 140 31 181 71 23 22 50 38 68 40 25 2 30 8 30 29 0
14 5 32 12 40 6 8 16 33 22 57 11 38 10 47 -10 82 -14 24 -30 40 -41 40 -10 0
-18 4 -18 9 0 11 -30 19 -50 13z"/>
<path d="M2633 1567 c-13 -13 -23 -30 -23 -40 0 -9 -5 -17 -11 -17 -38 0 -51
-88 -20 -129 l18 -24 24 33 c13 18 23 37 21 42 -1 5 4 21 12 37 8 15 18 49 21
75 8 53 -5 60 -42 23z"/>
<path d="M4381 1570 c-38 -18 -61 -37 -101 -87 -31 -38 8 -60 88 -49 36 5 53
13 75 39 44 51 50 74 27 97 -25 25 -34 25 -89 0z"/>
<path d="M9650 1547 c0 -42 9 -52 26 -28 15 21 7 61 -12 61 -9 0 -14 -12 -14
-33z"/>
<path d="M1310 1548 c0 -27 64 -70 125 -83 l30 -7 -25 22 -25 22 25 -6 c87
-23 100 -29 100 -51 0 -23 65 -65 101 -65 10 0 19 -4 19 -8 0 -4 8 -8 18 -9
89 -9 118 -39 32 -33 -34 2 -110 31 -110 41 0 5 -9 9 -20 9 -11 0 -20 3 -20 8
0 16 -52 31 -76 21 -33 -12 -32 -12 -37 9 -4 13 -5 11 -6 -5 -1 -23 7 -27 42
-24 9 1 17 -3 17 -8 0 -6 7 -11 15 -11 8 0 15 -4 15 -10 0 -5 11 -10 24 -10
14 0 28 -4 31 -10 3 -5 17 -10 31 -10 13 0 24 -4 24 -10 0 -5 16 -10 35 -10
19 0 35 -5 35 -11 0 -8 14 -10 44 -6 31 5 46 3 49 -6 2 -7 8 -9 12 -4 11 9
-15 57 -30 57 -24 0 -48 38 -41 65 4 14 11 25 16 25 6 0 10 3 10 8 0 4 -17 8
-37 8 -48 0 -147 30 -166 49 -8 8 -16 12 -19 10 -2 -2 -24 3 -48 12 -25 8 -70
19 -100 23 -30 4 -63 11 -72 15 -12 5 -18 3 -18 -7z"/>
<path d="M5890 1524 c-7 -19 -7 -31 1 -40 6 -8 11 -44 11 -81 -1 -60 3 -74 31
-116 52 -78 88 -73 85 11 -1 31 4 46 17 56 16 12 17 18 6 62 -17 68 -35 92
-87 115 -57 24 -53 24 -64 -7z"/>
<path d="M12620 1527 c0 -23 11 -47 21 -47 15 0 10 37 -6 50 -12 10 -15 10
-15 -3z"/>
<path d="M7690 1520 c0 -5 7 -10 15 -10 8 0 15 5 15 10 0 6 -7 10 -15 10 -8 0
-15 -4 -15 -10z"/>
<path d="M13373 1503 c-38 -5 -45 -23 -9 -23 31 0 56 10 56 21 0 5 -3 8 -7 7
-5 0 -23 -3 -40 -5z"/>
<path d="M16020 1490 c0 -5 7 -10 15 -10 8 0 15 5 15 10 0 6 -7 10 -15 10 -8
0 -15 -4 -15 -10z"/>
<path d="M3506 1470 c-22 -11 -45 -20 -52 -20 -7 0 -16 -9 -19 -20 -3 -11 -13
-20 -21 -20 -8 0 -14 -5 -14 -10 0 -6 -9 -23 -20 -38 -11 -15 -23 -44 -26 -63
-5 -32 -3 -37 17 -42 13 -4 35 -7 49 -7 30 -1 50 -16 69 -53 18 -33 51 -33 66
0 5 12 17 24 27 26 10 3 18 14 18 25 0 11 4 22 9 24 5 2 12 17 15 34 8 36 -23
84 -54 84 -30 0 -32 17 -6 37 14 10 26 27 28 38 4 28 -36 30 -86 5z"/>
<path d="M10676 1455 c-12 -9 -14 -15 -6 -20 8 -5 4 -11 -12 -19 -32 -16 -33
-39 -5 -80 22 -33 25 -34 43 -21 10 8 26 15 35 15 16 0 39 39 39 64 0 8 -11
21 -24 29 -13 9 -30 22 -38 30 -12 12 -17 12 -32 2z"/>
<path d="M11708 1463 c7 -3 16 -2 19 1 4 3 -2 6 -13 5 -11 0 -14 -3 -6 -6z"/>
<path d="M11762 1448 c6 -18 73 -49 92 -42 36 14 11 33 -62 47 -24 5 -32 3
-30 -5z"/>
<path d="M1344 1435 c8 -8 20 -15 27 -15 7 0 4 6 -7 15 -25 19 -40 19 -20 0z"/>
<path d="M12340 1445 c0 -3 19 -17 42 -32 38 -26 219 -96 226 -88 7 7 -68 54
-143 88 -72 33 -125 46 -125 32z"/>
<path d="M2264 1425 c-14 -36 5 -62 58 -79 29 -9 63 -26 75 -38 25 -23 86 -48
118 -47 14 0 10 4 -13 14 -18 8 -51 32 -72 54 -21 21 -51 43 -67 48 -15 5 -34
22 -41 36 -14 30 -49 36 -58 12z"/>
<path d="M9532 1419 c-9 -22 -7 -101 3 -126 2 -7 13 -13 24 -13 11 0 23 -5 27
-11 4 -7 23 8 50 37 54 60 62 81 37 99 -23 18 -33 19 -33 1 0 -15 -21 -26 -50
-26 -13 0 -20 9 -22 27 -4 34 -26 41 -36 12z"/>
<path d="M13518 1433 c7 -3 16 -2 19 1 4 3 -2 6 -13 5 -11 0 -14 -3 -6 -6z"/>
<path d="M12570 1422 c0 -9 40 -35 46 -29 6 6 -25 37 -37 37 -5 0 -9 -3 -9 -8z"/>
<path d="M1390 1410 c0 -5 10 -10 23 -10 18 0 19 2 7 10 -19 13 -30 13 -30 0z"/>
<path d="M10822 1401 c-16 -10 -12 -43 6 -49 8 -2 12 7 12 27 0 34 0 34 -18
22z"/>
<path d="M12780 1387 c-19 -15 -22 -47 -4 -47 7 0 16 5 19 10 3 6 16 10 29 10
29 0 39 10 25 27 -14 16 -49 16 -69 0z"/>
<path d="M4280 1360 c-14 -11 -31 -20 -37 -20 -7 0 -13 -7 -13 -15 0 -13 4
-14 21 -4 12 6 30 9 40 6 10 -3 22 -1 25 5 3 5 12 7 20 4 8 -3 14 1 14 9 0 8
5 15 10 15 6 0 10 5 10 10 0 17 -64 10 -90 -10z"/>
<path d="M10500 1368 c0 -24 30 -57 45 -52 22 9 18 20 -15 44 -21 15 -30 17
-30 8z"/>
<path d="M12278 1370 c-30 -18 -21 -46 21 -68 21 -11 42 -18 45 -15 3 3 12 0
21 -7 8 -7 24 -10 36 -7 12 3 29 1 39 -6 14 -8 22 -8 35 3 14 12 14 15 -7 37
-43 46 -156 83 -190 63z"/>
<path d="M4063 1362 c-9 -6 -10 -17 -4 -39 5 -17 7 -34 3 -37 -11 -12 9 -6 31
9 29 19 30 69 1 73 -10 1 -25 -2 -31 -6z"/>
<path d="M5035 1353 c-27 -8 -56 -17 -63 -19 -7 -2 -18 -15 -24 -29 -17 -37 0
-59 51 -66 42 -5 43 -5 78 48 19 29 32 60 29 68 -7 18 -8 18 -71 -2z"/>
<path d="M11778 1315 c-27 -28 63 -105 123 -105 11 0 27 -4 37 -9 9 -5 37 -15
62 -22 25 -7 62 -23 82 -36 48 -29 88 -31 88 -3 0 24 4 24 38 6 56 -30 107
-41 117 -26 7 11 -54 64 -94 81 -17 8 -31 17 -31 21 0 5 -31 8 -69 8 -61 0
-81 5 -158 41 -83 38 -179 60 -195 44z"/>
<path d="M9712 1231 c-37 -66 -16 -86 101 -93 42 -3 55 -9 100 -50 87 -81 151
-56 72 28 -19 20 -35 40 -35 44 0 5 14 13 30 19 46 16 40 53 -13 81 -27 13
-30 13 -46 -9 -19 -25 -22 -25 -106 -1 -83 24 -79 24 -103 -19z"/>
<path d="M5396 1228 c-3 -13 -7 -32 -8 -43 -3 -15 -11 -20 -38 -21 -44 -1 -60
-10 -89 -52 -18 -26 -29 -33 -48 -29 -13 2 -26 1 -28 -3 -3 -4 -28 -7 -57 -6
-30 1 -62 -4 -75 -12 -32 -20 -58 -8 -59 28 -1 39 -7 44 -36 29 -32 -16 -31
-15 -17 -37 11 -17 9 -24 -12 -51 -13 -17 -33 -32 -44 -35 -11 -2 -47 -9 -80
-15 -33 -6 -72 -20 -88 -31 -15 -12 -32 -18 -37 -15 -13 8 -90 12 -90 5 0 -3
12 -10 28 -17 44 -19 198 -2 251 27 50 29 78 19 73 -24 -2 -20 4 -30 28 -45
l32 -19 -23 -16 c-23 -16 -22 -16 26 -15 28 0 44 3 38 6 -23 9 -14 21 20 26
17 3 52 10 77 15 25 6 83 17 129 26 58 11 92 23 109 38 15 14 26 19 29 12 2
-7 12 -10 23 -7 10 3 32 -3 49 -13 29 -17 31 -17 70 1 22 10 43 26 47 37 3 11
17 23 30 28 25 10 31 24 13 35 -5 4 -14 17 -20 28 -15 36 -32 59 -66 90 -18
16 -33 34 -33 41 0 15 -46 42 -87 51 -28 6 -33 4 -37 -17z m33 -167 l22 -19
-52 -12 c-37 -9 -54 -9 -62 -1 -12 12 -13 11 33 33 19 9 35 17 36 17 1 1 11
-8 23 -18z m-249 -81 c0 -5 -8 -10 -17 -10 -15 0 -16 2 -3 10 19 12 20 12 20
0z m78 -12 c2 -9 -6 -21 -16 -27 -17 -9 -20 -7 -24 20 -4 26 -2 30 16 27 11
-2 22 -11 24 -20z"/>
<path d="M4110 1213 c-27 -5 -50 -26 -69 -61 -10 -20 -8 -24 21 -42 18 -11 38
-20 45 -20 6 0 15 -9 18 -20 9 -29 49 -25 87 8 22 20 29 34 25 46 -4 10 -13
16 -20 13 -22 -8 -43 16 -43 48 1 32 -12 38 -64 28z"/>
<path d="M4770 1182 c-32 -27 -35 -52 -6 -52 13 0 56 53 56 70 0 17 -14 12
-50 -18z"/>
<path d="M9440 1200 c0 -5 14 -10 31 -10 17 0 28 4 24 10 -3 6 -17 10 -31 10
-13 0 -24 -4 -24 -10z"/>
<path d="M10817 1202 c-45 -3 -47 -4 -36 -24 6 -12 25 -34 42 -50 42 -37 105
-36 136 4 28 35 26 46 -6 60 -30 13 -60 15 -136 10z"/>
<path d="M12680 1195 c0 -8 -14 -17 -37 -21 -21 -4 -41 -8 -45 -10 -11 -7 4
-43 29 -69 24 -23 25 -26 11 -59 l-13 -35 -37 33 c-20 18 -52 36 -72 40 -34 6
-36 5 -36 -19 0 -14 7 -28 15 -31 8 -4 15 -12 15 -19 0 -8 9 -16 19 -20 11 -3
22 -12 25 -21 3 -9 14 -13 28 -10 13 3 40 8 61 11 33 5 37 9 37 35 0 16 -5 32
-10 35 -15 9 -4 22 17 19 43 -6 62 -18 79 -52 11 -21 22 -39 25 -42 4 -3 9
-15 13 -26 7 -22 42 -38 58 -27 11 6 2 74 -14 118 -15 39 -90 135 -128 163
-34 26 -40 27 -40 7z"/>
<path d="M4840 1132 c0 -23 25 -48 34 -34 3 5 20 12 37 16 46 9 31 30 -24 34
-41 3 -47 1 -47 -16z"/>
<path d="M9104 1070 l7 -55 -21 24 c-11 13 -20 18 -20 11 0 -14 19 -34 43 -43
9 -4 20 -15 24 -24 9 -23 21 -35 58 -53 17 -8 33 -19 36 -23 3 -5 52 -11 108
-14 56 -3 104 -10 107 -14 3 -5 45 -9 94 -9 68 0 88 3 85 13 -9 21 37 40 102
43 34 1 67 5 73 9 15 9 2 25 -20 25 -10 0 -25 9 -32 19 -17 25 -64 37 -82 22
-10 -9 -21 -8 -42 0 -50 20 -74 16 -113 -18 -41 -35 -110 -48 -133 -25 -17 17
-55 15 -66 -4 -8 -14 -15 -14 -73 1 -65 17 -99 35 -65 35 12 0 16 5 12 15 -3
9 1 18 9 21 11 5 12 11 4 25 -5 10 -14 19 -20 19 -6 0 -26 12 -46 27 l-35 27
6 -54z"/>
<path d="M10080 1096 c-24 -24 -10 -61 39 -103 28 -24 53 -43 58 -43 4 0 14
14 21 30 11 24 20 30 43 30 26 0 28 2 19 19 -5 11 -24 33 -41 50 -27 27 -37
31 -79 30 -27 -1 -54 -7 -60 -13z"/>
<path d="M11180 1097 c0 -23 35 -47 68 -47 40 0 44 31 7 48 -35 16 -75 15 -75
-1z"/>
<path d="M3961 1077 c-26 -28 -27 -37 -3 -37 18 0 46 46 33 55 -5 2 -18 -6
-30 -18z"/>
<path d="M5964 1075 c-11 -27 4 -47 28 -40 37 11 44 24 22 40 -25 19 -43 19
-50 0z"/>
<path d="M9805 1069 c-8 -12 3 -29 18 -29 7 0 24 -6 38 -14 35 -18 119 -30
119 -17 0 15 -52 52 -66 47 -7 -3 -33 2 -58 9 -27 8 -48 10 -51 4z"/>
<path d="M9467 1057 c-7 -7 -21 -17 -32 -23 -10 -6 -21 -16 -23 -23 -6 -18 33
-5 76 24 30 21 31 23 12 28 -11 3 -26 0 -33 -6z"/>
<path d="M5706 1051 c-3 -5 3 -20 13 -32 15 -18 22 -21 31 -13 9 9 7 17 -6 33
-20 23 -30 26 -38 12z"/>
<path d="M2822 1027 c-29 -9 -33 -14 -30 -41 3 -30 5 -31 46 -30 24 0 47 5 50
11 4 6 17 13 30 17 20 7 32 45 15 47 -39 5 -84 4 -111 -4z"/>
<path d="M4502 989 c-34 -36 -40 -39 -64 -30 -15 6 -53 9 -86 7 -68 -3 -99
-26 -109 -79 -3 -18 -14 -40 -24 -50 -45 -43 -6 -57 75 -27 33 12 79 27 101
33 22 5 52 22 67 37 15 14 45 35 67 44 39 18 62 47 42 54 -6 2 -8 14 -5 28 10
38 -21 30 -64 -17z"/>
<path d="M10453 992 c-7 -7 -13 -19 -13 -26 0 -22 53 -62 127 -97 40 -19 72
-39 72 -44 1 -14 58 -43 99 -51 18 -4 35 -11 38 -15 3 -5 16 -9 29 -9 13 0 27
-4 30 -10 3 -5 14 -10 24 -10 10 0 32 -7 47 -15 18 -9 52 -15 89 -14 33 1 71
-2 84 -6 19 -6 22 -4 19 12 -2 11 -13 19 -28 21 -14 2 -34 7 -45 12 -11 4 -48
19 -83 32 -56 21 -78 43 -41 43 8 0 18 16 23 37 12 46 -5 69 -64 87 -49 14
-56 11 -63 -32 -3 -19 -17 -47 -32 -63 l-26 -28 -35 19 c-19 10 -37 15 -40 12
-8 -7 -44 36 -44 51 0 6 13 13 29 17 34 7 46 38 22 58 -34 30 -193 44 -218 19z"/>
<path d="M10131 930 c-19 -5 -41 -6 -49 -2 -9 3 -13 1 -9 -5 6 -10 21 -14 125
-29 46 -7 54 2 24 29 -20 18 -38 20 -91 7z"/>
<path d="M10023 923 c9 -2 23 -2 30 0 6 3 -1 5 -18 5 -16 0 -22 -2 -12 -5z"/>
<path d="M5361 868 c-55 -9 -69 -21 -48 -42 12 -12 36 -16 96 -16 47 0 81 -4
81 -10 0 -6 37 -10 90 -10 55 0 90 -4 90 -10 0 -7 35 -10 94 -8 87 3 93 4 80
19 -8 9 -40 24 -70 34 -52 16 -56 16 -74 0 -20 -18 -53 -13 -77 10 -10 10 -8
14 9 19 12 3 19 9 14 13 -10 10 -227 11 -285 1z"/>
<path d="M10273 873 c9 -2 23 -2 30 0 6 3 -1 5 -18 5 -16 0 -22 -2 -12 -5z"/>
<path d="M3542 854 c-8 -8 -11 -22 -8 -31 6 -13 0 -15 -36 -8 -120 21 -171 21
-200 1 -12 -9 -29 -16 -38 -16 -8 0 -21 -9 -28 -20 -7 -11 -19 -20 -28 -20
-13 0 -15 -7 -11 -29 6 -27 3 -31 -28 -42 -43 -16 -44 -25 -5 -34 20 -4 39 -2
53 8 28 18 76 27 83 16 3 -5 19 -9 36 -9 30 0 30 0 14 -25 -9 -13 -16 -27 -16
-30 0 -8 39 -6 58 4 9 6 34 13 55 16 27 4 52 20 88 55 47 45 50 51 35 65 -22
22 -20 38 3 30 32 -10 71 5 71 27 0 10 4 17 9 14 12 -8 41 3 41 15 0 5 -24 9
-54 9 -30 0 -58 5 -61 10 -8 14 -18 12 -33 -6z"/>
<path d="M10350 858 c0 -4 14 -8 30 -8 17 0 30 2 30 4 0 2 -13 6 -30 8 -16 3
-30 1 -30 -4z"/>
<path d="M3756 835 c-22 -34 -21 -37 22 -33 31 2 36 6 34 23 -4 19 -19 34 -33
35 -4 0 -14 -11 -23 -25z"/>
<path d="M11100 849 c0 -31 81 -70 167 -80 40 -4 89 -16 109 -25 27 -13 51
-15 105 -11 90 8 97 13 63 48 -36 38 -184 83 -199 60 -2 -5 -32 -11 -65 -14
-47 -5 -72 -2 -113 13 -60 23 -67 24 -67 9z"/>
<path d="M5886 832 c-8 -14 32 -62 54 -62 9 0 23 7 30 15 7 9 29 15 51 15 40
0 61 15 32 24 -41 12 -161 18 -167 8z"/>
<path d="M4590 801 c-36 -16 -83 -33 -105 -37 l-40 -7 34 -9 c22 -6 42 -6 55
1 23 10 130 26 159 23 9 -1 17 2 17 7 0 8 28 19 68 27 37 7 19 14 -36 14 -33
0 -66 2 -74 5 -7 3 -42 -8 -78 -24z"/>
<path d="M3890 763 c0 -17 20 -16 44 2 18 13 17 14 -12 12 -18 -1 -32 -8 -32
-14z"/>
<path d="M7557 762 c-24 -26 -23 -114 1 -134 32 -28 52 -29 78 -3 29 29 33 97
8 133 -19 27 -64 29 -87 4z m74 -29 c12 -33 4 -86 -16 -103 -20 -17 -55 21
-55 61 0 67 50 96 71 42z"/>
<path d="M4295 759 c-25 -5 -27 -7 -12 -14 17 -7 126 0 135 10 10 9 -82 12
-123 4z"/>
<path d="M15887 732 c-24 -26 -23 -114 1 -134 32 -28 52 -29 78 -3 29 29 33
97 8 133 -19 27 -64 29 -87 4z m74 -29 c12 -33 4 -86 -16 -103 -20 -17 -55 21
-55 61 0 67 50 96 71 42z"/>
<path d="M11685 719 c7 -21 5 -21 -51 -17 -64 6 -129 -15 -120 -39 3 -7 -2
-17 -11 -22 -13 -7 -10 -10 18 -16 19 -4 38 -10 44 -13 5 -3 28 -8 50 -10 22
-2 42 -8 43 -13 2 -5 31 -9 65 -9 71 0 63 12 -20 31 -49 11 -76 35 -54 48 23
15 166 3 286 -24 120 -26 150 -38 140 -56 -3 -3 -68 -4 -145 -1 -101 3 -140 2
-140 -7 0 -7 22 -11 60 -11 35 0 60 -4 60 -10 0 -7 18 -8 49 -4 31 4 51 2 55
-5 4 -6 22 -11 41 -11 19 0 37 -4 40 -10 3 -5 21 -10 40 -10 19 0 37 -4 40
-10 3 -5 22 -10 41 -10 19 0 34 -4 34 -8 0 -4 26 -8 58 -9 54 -1 56 -1 32 12
-14 8 -31 14 -39 15 -17 0 -81 41 -81 52 0 15 75 48 111 48 21 0 39 5 39 10 0
6 -7 10 -16 10 -9 0 -28 8 -42 18 -38 27 -88 42 -138 42 -24 0 -45 4 -49 9 -3
6 -24 12 -48 15 -116 14 -250 27 -320 31 -77 5 -78 5 -72 -16z"/>
<path d="M12720 700 c-21 -5 -26 -13 -28 -45 -2 -22 -8 -44 -13 -49 -12 -13
-11 -61 3 -107 13 -45 36 -50 96 -22 51 24 81 63 48 63 -7 0 -19 6 -25 14 -10
11 -8 16 5 24 15 8 16 13 5 26 -9 10 -10 20 -3 33 8 13 6 25 -5 44 -16 27 -35
31 -83 19z"/>
<path d="M2596 679 c-19 -15 -25 -27 -20 -38 4 -9 6 -24 6 -33 0 -10 4 -20 9
-23 5 -4 7 -11 4 -16 -4 -5 7 -9 22 -9 36 0 76 27 69 47 -3 8 -2 22 4 32 12
24 -14 61 -44 61 -13 0 -35 -10 -50 -21z"/>
<path d="M3760 664 c-25 -12 -63 -28 -85 -34 -45 -14 -88 -32 -95 -41 -9 -11
-69 -39 -83 -39 -8 0 -26 -9 -40 -20 -17 -14 -40 -20 -73 -20 -26 0 -61 -4
-78 -9 -17 -5 -47 -14 -66 -19 -19 -6 -62 -20 -95 -32 -33 -13 -73 -26 -90
-31 -24 -7 -22 -7 15 -4 68 6 123 15 145 24 30 12 188 41 224 41 17 0 31 5 31
10 0 6 16 10 35 10 34 0 48 14 23 23 -7 2 -3 2 9 0 23 -3 28 -1 90 31 17 9 41
16 52 16 12 0 21 5 21 10 0 6 7 10 15 10 20 0 59 25 108 67 l37 33 -27 -1
c-16 -1 -48 -12 -73 -25z"/>
<path d="M4057 676 c-16 -13 -16 -14 6 -18 23 -4 57 11 57 26 0 11 -45 6 -63
-8z"/>
<path d="M11402 668 c3 -7 13 -15 22 -16 12 -3 17 1 14 10 -3 7 -13 15 -22 16
-12 3 -17 -1 -14 -10z"/>
<path d="M11188 653 c12 -2 32 -2 45 0 12 2 2 4 -23 4 -25 0 -35 -2 -22 -4z"/>
<path d="M3020 596 c-29 -14 -45 -28 -44 -39 1 -11 -5 -17 -18 -17 -11 0 -46
-16 -78 -35 -32 -19 -65 -35 -74 -35 -9 0 -16 -8 -16 -19 0 -14 10 -20 39 -25
41 -6 101 2 101 14 0 13 47 28 60 20 20 -12 73 -3 124 21 57 27 62 41 20 64
-36 19 -42 31 -21 38 9 3 9 7 -2 20 -18 22 -36 21 -91 -7z"/>
<path d="M2537 563 c-15 -14 -6 -41 18 -57 29 -19 35 -20 35 -3 0 39 -35 79
-53 60z"/>
<path d="M12490 490 c-13 -11 -32 -20 -44 -20 -43 0 2 -19 59 -25 42 -5 56 -4
45 4 -12 9 -12 11 3 17 21 8 22 30 1 38 -26 10 -40 7 -64 -14z"/>
<path d="M2858 403 c7 -3 16 -2 19 1 4 3 -2 6 -13 5 -11 0 -14 -3 -6 -6z"/>
</g>
</svg>
